<svg version="1.1" id="Layer_1" xmlns="http://www.w3.org/2000/svg" xmlns:xlink="http://www.w3.org/1999/xlink" x="0px" y="0px"
	 width="100%" viewBox="0 0 300 300" enable-background="new 0 0 300 300" xml:space="preserve">
<path fill="#1F1B2E" opacity="1.000000" stroke="none" 
	d="
M198.000000,301.000000 
	C133.333344,301.000000 69.166618,300.965179 5.000233,301.096710 
	C1.575558,301.103729 0.900213,300.424103 0.904390,296.999908 
	C1.023108,199.666748 1.023102,102.333374 0.904407,5.000205 
	C0.900232,1.576275 1.575721,0.900206 5.000027,0.904383 
	C102.333191,1.023108 199.666565,1.023097 296.999725,0.904416 
	C300.423523,0.900241 301.099823,1.575545 301.095642,4.999974 
	C300.976929,102.333145 300.976898,199.666534 301.095581,296.999695 
	C301.099731,300.423431 300.427002,301.116791 296.999695,301.099426 
	C264.167114,300.933228 231.333389,301.000000 198.000000,301.000000 
z"/>
<path fill="#DE7F48" opacity="1.000000" stroke="none" 
	d="
M169.432434,91.831604 
	C168.808563,93.278503 168.403687,94.353516 167.899170,95.997131 
	C164.628662,104.176399 161.457825,111.787071 158.061493,119.669922 
	C154.749542,120.801460 151.618271,121.163658 148.715012,119.541527 
	C146.518997,118.314537 144.493179,119.586464 142.391113,119.541382 
	C136.730103,119.419960 131.064743,119.499908 125.016022,119.498962 
	C123.545845,119.802460 124.457939,117.559380 122.500816,118.175560 
	C119.579590,119.095268 116.333069,118.473709 112.852783,118.387184 
	C106.800240,117.425095 101.160812,116.823898 95.763229,119.688408 
	C94.515770,120.350433 93.214340,119.911057 91.727875,118.875923 
	C89.884621,116.962135 91.021004,115.679161 92.034393,114.359764 
	C94.415863,111.259171 96.586006,108.011429 98.962402,104.370201 
	C106.488960,98.232986 113.826469,92.568184 122.347069,88.671700 
	C128.263351,85.966156 134.640610,84.985870 141.378067,83.565460 
	C149.085190,84.535088 156.456284,83.480286 164.093719,85.122749 
	C167.102356,86.613495 171.442505,86.500824 169.432434,91.831604 
z"/>
<path fill="#DB7E49" opacity="1.000000" stroke="none" 
	d="
M168.806778,113.501083 
	C173.708969,106.164108 175.743866,98.047874 178.943008,90.467194 
	C180.664627,86.387650 182.392776,85.277885 186.521957,87.479141 
	C189.004776,86.759598 190.657623,88.082268 192.055054,89.133316 
	C200.729996,95.658035 207.893372,103.539970 212.609207,113.413887 
	C213.360840,114.987671 214.308578,116.901131 212.780350,118.685379 
	C211.396957,120.300568 209.752686,119.207886 208.157394,119.162354 
	C198.035187,118.873413 187.907944,118.879257 177.786087,119.154404 
	C175.702621,119.211037 173.651901,119.113777 171.588654,118.971237 
	C167.127975,118.663078 166.989960,118.433792 168.806778,113.501083 
z"/>
<path fill="#995B38" opacity="1.000000" stroke="none" 
	d="
M244.671448,160.517700 
	C242.882416,158.898911 243.549240,157.169449 244.053833,155.680420 
	C245.920593,150.171738 248.013885,144.740265 249.937576,139.250168 
	C250.725693,137.000992 252.385727,136.232544 254.530518,136.135437 
	C256.848480,136.030487 258.271210,137.240234 258.981537,139.372330 
	C260.989655,145.399734 261.497437,151.736481 262.763611,157.916946 
	C263.053528,159.332169 262.666168,160.694412 260.862701,160.759598 
	C259.136902,160.821991 256.968140,161.641113 256.139313,159.242493 
	C254.467194,154.403412 251.975540,156.305618 250.206253,158.779953 
	C248.701416,160.884476 247.010071,160.782547 244.671448,160.517700 
z"/>
<path fill="#9F5E39" opacity="1.000000" stroke="none" 
	d="
M101.987564,155.678909 
	C101.538628,158.122360 102.223633,160.956192 98.518509,160.851486 
	C94.614677,160.741165 95.691620,157.852432 95.759392,155.763412 
	C95.915421,150.953598 96.190163,146.139450 96.670654,141.352554 
	C96.850517,139.560684 96.082474,136.985443 98.797539,136.340881 
	C101.538956,135.690033 103.693138,136.701202 105.017136,139.741608 
	C106.101616,140.686493 106.738297,140.264236 107.448578,139.224396 
	C107.682220,138.473465 107.745728,137.988998 107.838676,137.138947 
	C108.991760,134.711288 110.801147,134.657501 112.585915,135.480759 
	C115.423004,136.789383 114.500969,139.350525 114.381157,142.043671 
	C114.606285,145.528931 114.457024,148.591202 114.500259,152.053986 
	C114.499886,153.243362 114.499672,154.031174 114.495361,155.203522 
	C114.484573,156.353271 114.464577,157.117447 114.091621,158.196350 
	C108.672905,161.625977 108.684349,161.621414 106.389420,155.861618 
	C106.140099,155.235886 105.536034,154.862701 104.544662,154.599960 
	C103.370422,154.502686 102.538048,154.479568 101.987564,155.678909 
z"/>
<path fill="#9D5D38" opacity="1.000000" stroke="none" 
	d="
M239.060242,145.138611 
	C237.933960,146.830780 236.953537,148.180573 236.110352,149.611252 
	C234.944260,151.589828 234.094543,153.555145 237.834351,153.171829 
	C239.669006,152.983765 240.684036,153.593872 240.763504,155.560898 
	C240.838531,157.418503 240.256378,158.972565 238.456467,159.538635 
	C236.567642,160.132706 234.568451,160.430115 232.595413,160.688965 
	C229.829071,161.051895 227.061188,160.729248 225.529007,158.129059 
	C224.123749,155.744293 225.883942,153.684784 227.079559,151.711761 
	C227.854767,150.432480 228.818802,149.266418 229.576889,147.978226 
	C230.758972,145.969589 232.678162,143.653046 228.043625,143.564148 
	C226.290176,143.530518 225.963974,142.174362 225.994339,140.728546 
	C226.026672,139.188736 226.135818,137.615295 228.049622,137.225235 
	C229.838699,136.860611 231.650635,136.591904 233.462585,136.359619 
	C236.066040,136.025848 239.102905,135.027512 240.887421,137.550415 
	C242.728271,140.152954 240.683731,142.579269 239.060242,145.138611 
z"/>
<path fill="#9E5F3A" opacity="1.000000" stroke="none" 
	d="
M213.590424,181.274780 
	C214.384857,180.225067 214.777512,179.288269 215.360092,178.490082 
	C216.603470,176.786606 218.412628,177.185501 219.896667,177.810547 
	C222.053619,178.719025 220.809753,180.398407 220.178009,181.594940 
	C210.372208,200.167572 196.788300,214.436539 175.864151,220.309814 
	C174.769485,220.617081 173.784454,221.314926 172.384888,221.916107 
	C171.505417,221.854324 171.112808,221.549591 170.754181,220.712677 
	C170.685623,219.098846 171.119125,218.095062 172.443420,217.823822 
	C176.927017,216.905548 180.462891,213.518677 184.976517,212.859482 
	C188.049210,212.410736 188.934570,210.622009 189.300476,207.673828 
	C193.429489,202.293121 199.611511,199.592651 203.480804,193.973145 
	C203.931625,191.844727 205.537720,190.979156 206.705566,189.353073 
	C210.172607,187.475220 210.787766,183.684067 213.590424,181.274780 
z"/>
<path fill="#9B5D3A" opacity="1.000000" stroke="none" 
	d="
M121.900177,217.697723 
	C107.715729,212.343430 97.308868,203.085007 89.148468,191.195435 
	C87.372307,188.607590 85.975601,185.736420 84.621765,182.892166 
	C84.029129,181.647095 82.464638,180.221024 83.702209,178.825211 
	C84.951996,177.415634 86.769760,178.080170 88.655518,178.847687 
	C90.956001,180.020889 91.982651,181.898560 93.337891,183.953033 
	C95.238472,186.804535 96.497581,189.667358 99.017235,192.093292 
	C100.101616,194.217575 101.430519,195.607559 103.542358,196.750977 
	C106.050545,199.422699 107.805946,202.373917 111.443359,203.779968 
	C114.186943,207.437668 118.833672,207.749695 121.815857,211.062897 
	C122.174339,211.543747 122.285484,211.760178 122.507339,212.326721 
	C122.944603,214.285309 124.347618,215.894394 121.900177,217.697723 
z"/>
<path fill="#9A5C3A" opacity="1.000000" stroke="none" 
	d="
M207.528763,153.291367 
	C209.133041,151.280914 210.422119,149.563217 211.586655,147.764862 
	C213.026672,145.541107 214.874908,143.075409 209.766754,143.597839 
	C208.154343,143.762726 207.926102,142.502640 207.964691,141.237411 
	C208.015625,139.566559 207.900192,137.655014 210.074966,137.262924 
	C213.174194,136.704208 216.320572,136.049744 219.443222,136.067459 
	C223.468674,136.090317 224.712830,138.389938 222.837067,142.114502 
	C221.498993,144.771408 219.706863,147.203598 218.069183,149.704498 
	C216.572220,151.990494 216.475540,153.500198 219.874603,153.170334 
	C221.422180,153.020157 222.512650,153.379044 222.638794,155.150894 
	C222.776611,157.086868 222.618057,159.011398 220.369370,159.564789 
	C216.183136,160.595001 211.932571,161.870773 207.509705,159.035156 
	C205.062027,157.099472 205.274307,155.329514 207.528763,153.291367 
z"/>
<path fill="#9D5B36" opacity="1.000000" stroke="none" 
	d="
M92.196716,149.722260 
	C92.072113,150.588593 92.163605,151.274765 92.223839,152.307175 
	C92.390976,153.091614 92.522171,153.548477 92.483902,154.372650 
	C91.833488,155.535309 90.949593,155.884460 89.773415,156.362106 
	C88.036797,156.680252 86.837593,155.890320 85.237854,155.833237 
	C83.215500,156.633591 81.736595,157.407806 80.804405,159.264389 
	C79.811295,161.242279 77.706558,161.053497 75.939064,160.509293 
	C73.539513,159.770493 74.530289,157.854370 74.910355,156.340073 
	C76.410492,150.363083 78.717064,144.667999 81.079231,138.991226 
	C81.888618,137.046112 83.319382,136.133575 85.305344,136.113724 
	C87.475578,136.091995 89.093880,136.981567 89.938805,139.163223 
	C91.092346,142.141754 91.512024,145.260101 91.955025,148.809845 
	C92.096306,149.340668 92.254555,149.441360 92.196716,149.722260 
z"/>
<path fill="#3C2828" opacity="1.000000" stroke="none" 
	d="
M168.826248,113.272224 
	C167.293335,117.089935 168.031830,118.555206 172.873932,118.394081 
	C184.637207,118.002632 196.434402,117.601669 208.190018,118.568855 
	C212.123398,118.892464 212.633148,117.494522 211.225891,114.364502 
	C206.118546,103.004669 198.094116,94.283287 187.123016,87.802200 
	C186.922424,87.062012 186.955566,86.542191 186.999802,85.631859 
	C189.751144,82.834167 192.058792,85.309517 193.766541,86.491905 
	C203.199081,93.022690 211.147049,100.974487 215.764313,112.106003 
	C215.932587,112.352844 216.247299,112.726357 216.814056,112.567261 
	C217.603317,111.910042 218.062592,111.652008 218.689209,111.144028 
	C221.755859,112.056145 223.024460,114.654388 222.861801,117.172615 
	C222.672729,120.099960 219.442535,119.692589 217.318558,120.326607 
	C213.331253,121.516830 209.422775,119.926460 205.470245,119.955902 
	C196.025162,120.026245 186.580658,120.178444 177.135544,120.236382 
	C174.990585,120.249542 172.815231,120.194046 170.704391,119.855339 
	C166.471283,119.176071 165.887314,117.275284 168.826248,113.272224 
z"/>
<path fill="#9D5D37" opacity="1.000000" stroke="none" 
	d="
M191.226883,152.416046 
	C188.039886,153.226166 186.188202,154.686264 186.270584,157.987045 
	C186.310822,159.599380 185.641006,160.897827 183.632843,160.846481 
	C181.480042,160.791428 180.667892,159.438934 180.703537,157.599442 
	C180.815887,151.802994 180.958313,146.003418 181.289383,140.216492 
	C181.456131,137.301773 184.006393,137.324142 186.108932,136.955399 
	C188.858383,136.473221 191.613571,135.483841 194.854614,137.409515 
	C195.979965,138.791214 196.586792,139.825150 197.270111,141.212341 
	C197.773697,144.066498 197.020676,146.421921 196.204071,149.123550 
	C195.953522,149.446716 195.806931,149.752411 195.703415,149.886658 
	C194.522995,151.279068 192.800858,151.362869 191.226883,152.416046 
z"/>
<path fill="#9D5E3A" opacity="1.000000" stroke="none" 
	d="
M39.591248,152.969879 
	C39.604687,150.381912 39.619442,148.147629 39.700096,145.496048 
	C39.364819,143.973328 39.520912,142.831451 39.736023,141.316666 
	C40.790676,134.858246 46.033581,136.863342 49.392120,136.325592 
	C53.054867,135.739151 55.517494,138.384338 56.138401,142.184769 
	C56.818726,146.348862 55.707771,150.142700 51.732384,151.776520 
	C47.958363,153.327606 44.194332,154.083984 44.623051,159.442810 
	C44.725456,160.722900 42.979782,160.780960 41.419899,160.750061 
	C40.856857,160.533218 40.679779,160.378311 40.325195,159.918198 
	C39.848877,158.227295 40.183567,156.781357 39.644035,155.070770 
	C39.508110,154.261292 39.525600,153.791519 39.591248,152.969879 
z"/>
<path fill="#9A5B38" opacity="1.000000" stroke="none" 
	d="
M149.483597,135.652893 
	C151.452835,138.903961 151.329391,141.138702 147.558395,141.919876 
	C145.161697,142.416336 145.112198,144.199844 145.035583,146.111359 
	C144.882736,149.925613 144.617310,153.735367 144.296234,157.966446 
	C143.185501,158.378555 143.631897,159.068878 143.824097,159.770752 
	C139.925629,162.117218 138.226379,160.926422 138.617416,156.312515 
	C138.854996,153.509659 138.550690,150.661362 138.779907,147.857193 
	C139.073700,144.263031 137.716705,142.515503 133.605728,142.696884 
	C130.618866,138.581665 131.396255,135.079742 135.299454,134.742310 
	C139.877365,134.346542 144.577423,133.762482 149.483597,135.652893 
z"/>
<path fill="#9E5D38" opacity="1.000000" stroke="none" 
	d="
M125.251030,159.669159 
	C122.040779,160.219376 119.041779,160.540833 115.618179,160.862885 
	C113.048859,158.424240 114.184868,155.485321 114.039284,152.770676 
	C113.814186,148.572968 114.508987,144.383514 114.606956,140.213516 
	C114.679352,137.131821 115.738541,135.850525 118.410149,135.259583 
	C120.502998,134.796661 122.592567,134.330719 125.249405,134.549377 
	C129.258209,135.204544 132.995331,135.617508 131.918274,141.251678 
	C131.707886,142.291412 131.380325,142.759186 130.477112,143.229538 
	C129.299911,143.477219 128.510300,143.488373 127.362740,143.514526 
	C125.814163,143.798447 124.284370,143.055283 123.441177,144.973511 
	C123.158981,145.855316 123.020424,146.452652 122.962837,147.375656 
	C122.968880,148.099854 122.893013,148.498245 122.547569,149.134872 
	C121.964272,150.091293 121.219330,150.556442 120.958130,151.683228 
	C121.993568,155.756973 125.050079,153.727707 127.182144,153.988739 
	C131.414459,154.506958 131.938034,155.443542 129.312866,159.682037 
	C127.844391,158.911484 126.688202,158.767044 125.251030,159.669159 
z"/>
<path fill="#9F5E39" opacity="1.000000" stroke="none" 
	d="
M215.216827,115.177689 
	C208.962051,102.216957 200.782455,91.531883 187.331573,85.335815 
	C186.455750,84.908936 185.908096,84.563202 185.344040,84.246704 
	C183.789062,83.374176 181.751816,82.577209 182.814621,80.310135 
	C184.088089,77.593704 186.062408,79.303062 187.764587,79.983055 
	C188.359985,80.220901 188.893356,80.614059 189.757324,81.099846 
	C191.418106,82.763687 193.269485,83.191650 195.260513,83.884323 
	C195.858887,84.497757 196.328995,84.821724 196.979736,85.369621 
	C198.692230,86.966888 200.148041,88.425720 202.124191,89.738853 
	C202.475555,89.783203 202.744659,89.952103 202.848602,90.072235 
	C203.515900,90.503410 203.478867,91.166779 204.068649,91.702332 
	C204.344467,91.780502 204.211975,91.788681 204.208023,91.722435 
	C204.312744,92.375786 204.896362,92.469215 205.647827,92.812271 
	C206.422745,93.603065 207.000275,94.183151 207.729004,95.030914 
	C208.818771,96.903152 209.833908,98.446762 211.509125,99.870743 
	C211.699738,100.124924 211.852051,100.354401 211.903336,100.513046 
	C212.588318,101.474060 213.222015,102.276436 214.053467,103.407837 
	C214.505920,104.389381 214.951248,104.930740 215.462494,105.834991 
	C215.628036,106.139771 215.767853,106.380066 215.818878,106.509369 
	C216.053009,106.565338 216.236145,106.492004 216.304840,106.691544 
	C216.462799,107.416183 216.735168,107.867943 217.172806,108.680725 
	C217.383545,109.268341 217.429001,109.494919 217.483459,110.066292 
	C217.304901,111.325485 217.684799,112.249557 217.424423,113.514359 
	C217.331223,114.341896 217.136185,114.763626 216.518570,115.310532 
	C215.957657,115.464821 215.716507,115.448357 215.216827,115.177689 
z"/>
<path fill="#9B5B35" opacity="1.000000" stroke="none" 
	d="
M162.317673,136.827240 
	C166.436264,140.772812 165.320236,145.970047 166.711197,150.391434 
	C167.392578,152.557281 167.473129,154.912155 167.815582,157.597015 
	C167.354370,158.385117 166.842758,158.639877 165.992279,158.870026 
	C165.117172,159.130463 164.530640,159.319443 163.592834,159.240295 
	C162.915039,158.924789 162.565338,158.668381 161.929382,158.260803 
	C161.450974,157.609894 161.274490,157.088821 161.041733,156.297974 
	C158.738968,153.882843 156.463791,157.636017 153.977722,155.709198 
	C153.624161,155.194855 153.507736,154.966583 153.202728,154.396332 
	C151.053253,147.803024 155.062729,142.946548 157.039734,137.678146 
	C157.759399,135.760330 160.230896,136.597809 162.317673,136.827240 
z"/>
<path fill="#915737" opacity="1.000000" stroke="none" 
	d="
M206.258820,158.529388 
	C205.018127,161.243927 202.944122,161.229630 201.002747,160.758087 
	C198.868591,160.239716 199.203156,158.169998 199.269745,156.625519 
	C199.518280,150.861603 199.846069,145.097397 200.337677,139.349869 
	C200.492813,137.536179 201.243912,135.834305 203.636734,135.748138 
	C206.074936,135.660355 206.791229,137.056030 206.900269,139.489471 
	C206.933304,139.840607 206.652069,140.253311 206.458069,140.415863 
	C206.114990,140.663635 205.965912,140.748840 205.573639,140.941391 
	C205.196487,141.174850 205.062500,141.300980 204.810715,141.685928 
	C204.596802,142.587296 204.882996,143.128891 205.280502,143.991608 
	C206.348831,146.406647 205.660660,148.740189 206.426056,151.263596 
	C207.127060,153.827072 206.395889,155.992386 206.258820,158.529388 
z"/>
<path fill="#A26039" opacity="1.000000" stroke="none" 
	d="
M110.703979,87.056183 
	C111.537354,86.798325 112.048424,86.522552 112.801529,86.086021 
	C113.610420,85.367256 114.212578,84.853447 115.194427,84.471062 
	C115.490715,84.498039 115.796074,84.343208 115.937309,84.246475 
	C116.552864,83.223068 117.400749,83.019257 118.671371,82.962402 
	C122.764305,81.537285 126.242455,79.324532 130.776245,79.038742 
	C131.601562,78.392372 132.284592,78.529175 133.250702,78.513153 
	C133.805145,78.584435 134.024506,78.645348 134.553467,78.862137 
	C135.492218,79.411026 136.209290,79.475960 137.246780,79.757957 
	C137.726593,80.152855 137.878510,80.358559 138.141510,80.935394 
	C138.231445,81.565826 138.210266,81.825134 138.014114,82.435181 
	C136.444305,83.988029 134.756851,84.697365 132.768311,85.513275 
	C124.548164,86.739571 118.229988,91.637611 110.623917,94.401093 
	C108.892105,94.169640 108.083618,93.039963 106.696335,92.108307 
	C106.322876,91.590729 106.231033,91.345657 106.166618,90.708977 
	C106.777924,89.769180 107.361809,89.221001 108.125183,88.431671 
	C108.667549,87.212578 109.465393,87.018700 110.703979,87.056183 
z"/>
<path fill="#9A5C3A" opacity="1.000000" stroke="none" 
	d="
M162.355286,136.910736 
	C158.444427,137.813416 153.645416,145.117371 154.439240,149.594589 
	C154.663742,150.860809 154.892914,152.126205 155.047668,153.695343 
	C154.628845,154.529541 154.094818,154.483490 153.566971,154.456406 
	C153.896057,154.491852 154.225479,154.523911 154.772202,154.756805 
	C156.665482,154.528351 158.328827,154.033920 160.021454,153.679138 
	C161.972763,153.270126 161.771790,154.357437 161.110748,155.811676 
	C158.623337,156.243805 156.495789,156.672272 155.234665,159.154877 
	C154.109329,161.370148 151.788467,161.143692 149.970779,160.483673 
	C147.794113,159.693359 148.707672,157.698242 149.219055,156.212524 
	C151.099106,150.750290 153.097870,145.328918 155.052963,139.892532 
	C156.299072,136.427612 158.620941,135.340469 162.355286,136.910736 
z"/>
<path fill="#AA5F31" opacity="1.000000" stroke="none" 
	d="
M134.224670,80.206863 
	C133.984222,79.975456 134.028076,79.547607 134.049789,79.333664 
	C134.142563,78.890236 134.213608,78.660759 134.629593,78.327087 
	C137.976044,77.170418 141.090439,77.161278 144.650940,77.255966 
	C147.458038,77.726089 149.846176,77.417923 152.574554,77.398392 
	C153.704300,77.380661 154.484283,77.439285 155.632782,77.632248 
	C156.430939,77.867889 156.863739,77.953262 157.627808,78.066170 
	C158.697662,78.144714 159.439377,78.179749 160.536682,78.324928 
	C162.348572,79.160759 164.080780,79.038338 165.796799,80.206512 
	C168.174423,85.162498 164.389923,84.118492 161.700470,84.498276 
	C159.673019,84.453217 158.074249,84.396774 156.122360,84.027916 
	C154.685181,83.869995 153.446198,84.260536 152.621155,83.382874 
	C150.755096,81.397743 149.211166,82.326302 147.325165,83.861290 
	C146.759430,83.989716 146.528458,84.018906 145.951569,84.099236 
	C144.902618,84.213097 144.229568,83.962997 143.189880,83.967781 
	C142.166122,84.001129 141.485535,84.001595 140.475647,84.086884 
	C139.929047,84.076302 139.713440,84.030815 139.231247,83.792664 
	C138.457642,82.896530 138.121078,82.072090 137.222351,81.255745 
	C136.985580,81.032928 136.987747,81.017624 136.982269,81.013367 
	C136.267548,80.255707 135.308426,80.601738 134.224670,80.206863 
z"/>
<path fill="#A46037" opacity="1.000000" stroke="none" 
	d="
M171.818665,219.691940 
	C172.013626,220.454773 172.015411,220.896652 172.019287,221.669922 
	C168.727310,223.242355 165.328476,223.942535 161.368423,223.941254 
	C158.337769,224.031631 155.740402,224.094955 152.775116,223.764313 
	C149.220886,222.857834 146.014282,222.293060 142.342834,222.859146 
	C140.196899,223.200653 138.473206,222.760559 136.390579,222.703125 
	C135.590866,222.815628 135.133438,222.767746 134.359650,222.577408 
	C133.587677,222.054474 133.389008,221.568909 133.640198,220.611084 
	C135.778580,219.012573 138.114944,219.357224 140.606476,218.610825 
	C141.850479,218.508057 142.683609,218.503586 143.934662,218.501099 
	C149.084442,218.429520 153.825592,218.704254 158.944687,218.058517 
	C160.131378,217.864746 160.914902,217.721283 162.073486,217.475815 
	C162.954865,217.296951 163.455261,217.189514 164.323471,216.991119 
	C166.447617,216.803970 167.888428,215.399445 170.084061,215.829437 
	C171.673004,216.808273 171.303894,218.211029 171.818665,219.691940 
z"/>
<path fill="#BD724B" opacity="1.000000" stroke="none" 
	d="
M178.646576,178.304550 
	C179.541550,178.186569 180.003708,178.224304 180.808533,178.322540 
	C182.264526,178.535294 183.408646,178.630310 183.966690,180.297394 
	C183.906082,180.982407 183.810379,181.249496 183.401443,181.782043 
	C181.514526,182.699738 179.799347,182.497986 177.775085,182.968063 
	C172.961685,183.388046 168.899323,180.929092 164.456131,181.460342 
	C162.899490,181.646454 161.339828,181.646255 160.414597,183.309311 
	C158.247025,187.205414 154.496002,189.147888 151.079636,186.786118 
	C145.459534,182.900879 139.416580,183.782822 133.376999,183.402344 
	C131.115494,183.259857 127.933105,183.899048 128.600616,179.462326 
	C134.222717,177.655273 139.674011,178.915894 145.079376,178.552231 
	C156.112961,177.809906 167.168213,178.822708 178.646576,178.304550 
z"/>
<path fill="#D07951" opacity="1.000000" stroke="none" 
	d="
M112.661041,178.240845 
	C113.512840,178.464172 113.939423,178.546585 114.693008,178.594635 
	C116.739029,178.455399 118.459259,178.503372 120.596664,178.609985 
	C121.182770,178.927887 121.351440,179.155334 121.538002,179.803986 
	C117.418381,184.836975 112.132431,183.306000 106.722237,182.857605 
	C105.861992,182.628174 105.335037,182.521774 104.802094,182.542435 
	C105.184982,182.692810 105.471016,182.939240 105.914749,183.500687 
	C106.489143,185.754211 105.550720,186.815704 103.723030,187.208466 
	C102.341988,187.505219 100.843277,187.486847 99.592010,189.040924 
	C98.995506,189.292999 98.737007,189.352966 98.084290,189.426697 
	C95.552261,188.703781 94.886444,186.215256 92.615837,184.989868 
	C91.616638,183.339554 91.017876,181.981567 90.622192,180.553665 
	C90.156906,178.874619 90.465263,177.456070 92.562988,177.534500 
	C99.119347,177.779648 105.712029,176.787628 112.661041,178.240845 
z"/>
<path fill="#9F572C" opacity="1.000000" stroke="none" 
	d="
M63.477695,136.319580 
	C66.468506,139.419083 64.911552,143.178070 64.647911,146.569061 
	C64.261330,151.541214 65.340553,154.262070 70.880104,153.614227 
	C71.436424,153.549164 72.061180,154.069305 72.764618,154.669449 
	C71.058449,157.222244 68.552589,156.291733 66.032082,156.466339 
	C65.773361,156.462509 65.365501,156.413010 65.365501,156.413010 
	C65.365501,156.413010 65.271393,156.654800 65.323349,156.924118 
	C65.353806,157.621445 65.210991,158.010925 64.735580,158.629028 
	C63.832088,159.290558 63.118420,159.438171 62.008057,159.471634 
	C59.252831,159.628311 58.390835,158.316696 58.506176,156.136688 
	C58.817768,150.247604 59.567604,144.383286 59.505287,138.472977 
	C59.474205,135.524979 62.160095,137.525299 63.477695,136.319580 
z"/>
<path fill="#3A292A" opacity="1.000000" stroke="none" 
	d="
M121.292145,179.464569 
	C119.265007,179.046768 117.557190,178.912842 115.434692,178.669586 
	C116.781097,178.367676 118.542191,178.175095 120.692421,177.977325 
	C127.086220,176.926697 133.133316,177.729691 139.574890,177.791656 
	C152.711639,177.141327 165.431519,178.136215 178.615387,178.087387 
	C170.037979,179.580566 160.887665,178.807800 151.797348,179.479477 
	C144.534378,180.016113 137.204910,179.652695 129.443802,179.728836 
	C128.038605,181.695801 126.444969,181.948624 124.187889,181.283112 
	C123.060501,180.660934 122.257126,180.334000 121.292145,179.464569 
z"/>
<path fill="#382221" opacity="1.000000" stroke="none" 
	d="
M126.555023,136.414474 
	C116.151863,136.418808 116.050629,136.411514 115.351898,146.102448 
	C115.020172,150.703232 115.159172,155.337967 115.139252,160.410400 
	C114.652885,160.609238 114.112183,160.354965 113.297272,159.978973 
	C112.903984,159.613342 112.784904,159.369476 112.866547,158.771179 
	C113.930756,153.574295 113.331085,148.692276 113.315155,143.448990 
	C112.455872,140.340149 115.228310,135.130615 108.225433,136.700043 
	C107.740509,133.946777 109.832809,134.302155 111.527603,134.350449 
	C113.116791,134.395721 114.698059,134.885971 116.613029,134.187607 
	C117.282486,133.673798 117.693413,133.381882 118.561295,133.162903 
	C119.720634,133.268448 120.411461,133.658051 121.558060,133.914780 
	C124.229652,133.982849 126.509789,134.123932 128.779175,133.858749 
	C130.015198,133.714310 130.592728,134.235260 130.414673,135.818375 
	C129.176498,136.681488 128.058289,136.446564 126.555023,136.414474 
z"/>
<path fill="#A26039" opacity="1.000000" stroke="none" 
	d="
M101.791901,93.965614 
	C103.160248,92.648537 104.412567,91.625458 105.929466,90.459869 
	C106.330589,90.431740 106.467140,90.546127 106.806435,90.834541 
	C107.752380,91.734665 108.656311,92.326241 109.117645,93.760025 
	C108.675377,97.794945 105.445374,99.199554 103.090225,101.318008 
	C101.849045,102.434441 100.425476,103.346748 99.308487,105.160004 
	C98.061134,106.409042 97.133713,107.503014 95.153442,107.141869 
	C93.792519,106.376091 92.997833,105.614998 92.460724,104.106293 
	C93.211784,102.579056 94.139160,101.432037 95.326019,100.106667 
	C96.701126,99.170074 97.496132,98.071335 98.754608,96.974823 
	C99.375961,96.257935 99.737480,95.755074 100.368958,95.096123 
	C101.046135,94.807053 101.391785,94.580246 101.791901,93.965614 
z"/>
<path fill="#9E5F3A" opacity="1.000000" stroke="none" 
	d="
M134.347748,220.775787 
	C134.020523,221.317627 134.026718,221.636932 134.039734,222.195572 
	C129.573486,222.138092 125.756607,219.926117 121.471619,218.070160 
	C121.185036,217.893768 121.305054,217.806549 121.364342,217.761978 
	C123.186111,216.760284 124.775314,215.505966 126.971741,214.532272 
	C129.544327,214.122528 131.619461,214.900986 134.135742,215.353149 
	C134.780884,215.449081 135.041245,215.469162 135.691345,215.518356 
	C137.851517,215.858200 139.598267,216.297607 141.759521,216.597565 
	C142.860840,216.951157 143.442703,217.448380 144.232117,218.257233 
	C144.437286,218.838181 144.444778,219.092545 144.231995,219.658691 
	C143.239105,219.981842 142.466461,219.993225 141.307526,220.011841 
	C138.913269,221.051743 136.744278,220.202698 134.347748,220.775787 
z"/>
<path fill="#182036" opacity="1.000000" stroke="none" 
	d="
M119.158646,134.212372 
	C118.473595,134.061707 118.037743,134.069321 117.273438,134.072876 
	C117.758171,132.866943 118.857368,132.274948 120.333130,132.456696 
	C129.596603,133.597366 138.903503,132.674759 148.179642,133.088806 
	C149.057281,133.127975 151.572037,132.049057 150.183472,134.985703 
	C146.053741,136.039886 142.104568,135.362305 138.188263,135.438171 
	C136.367523,135.473419 134.580353,135.290970 132.574417,136.457916 
	C131.662643,136.754425 131.130356,136.674744 130.342529,136.126984 
	C127.471069,134.055313 124.566444,135.453674 121.431969,135.003723 
	C120.582458,134.529144 119.970062,134.514679 119.158646,134.212372 
z"/>
<path fill="#9D5E3A" opacity="1.000000" stroke="none" 
	d="
M160.665314,83.416550 
	C162.512604,82.830414 164.842026,83.538200 165.015350,80.303169 
	C166.086044,79.006218 167.004211,79.700150 168.085175,80.595421 
	C174.298920,81.480095 174.665955,82.058884 171.265137,86.841934 
	C170.132263,88.435257 171.463058,90.517136 169.501312,91.994980 
	C169.916061,89.157974 167.997360,88.056099 165.328445,87.131241 
	C164.332825,84.805923 161.371704,85.777771 160.665314,83.416550 
z"/>
<path fill="#985F42" opacity="1.000000" stroke="none" 
	d="
M63.397655,136.095840 
	C62.437134,137.654144 62.950356,139.210754 63.472923,140.850601 
	C63.813984,141.920898 64.192574,143.527634 62.650928,143.744736 
	C61.053787,143.969620 61.316097,142.243896 61.061348,141.183014 
	C60.923687,140.609726 61.255577,139.827698 59.853531,139.375336 
	C61.136768,145.581497 58.165833,151.601547 60.634300,157.854095 
	C61.289524,158.335876 61.551567,158.684036 61.638840,159.460175 
	C61.164791,160.443634 60.500362,160.502914 59.482315,160.559280 
	C56.672611,157.080383 58.401913,153.207535 58.319672,149.508362 
	C58.245914,146.190613 58.822742,142.863541 58.895687,139.535828 
	C58.958473,136.671524 60.310280,135.644485 63.397655,136.095840 
z"/>
<path fill="#985F42" opacity="1.000000" stroke="none" 
	d="
M123.475723,118.791496 
	C130.851074,119.395683 137.909317,119.065773 144.988281,118.428207 
	C148.983994,118.068336 152.839081,120.541542 157.415833,119.885269 
	C156.577698,120.974556 155.048355,121.069588 153.585037,120.866554 
	C140.367416,119.032707 127.092972,120.825546 113.430069,120.089615 
	C112.885963,119.732018 112.771370,119.470566 112.883911,118.846481 
	C115.597000,117.535835 118.184181,118.198715 121.143616,118.018127 
	C122.147110,118.045868 122.688789,118.193016 123.475723,118.791496 
z"/>
<path fill="#9E5D38" opacity="1.000000" stroke="none" 
	d="
M87.863144,120.528786 
	C87.169769,120.580078 86.904419,120.628250 86.453339,120.776138 
	C82.815826,120.552032 82.168381,118.053154 83.585175,115.877228 
	C85.123360,113.514877 85.839020,110.462158 88.753662,108.556503 
	C89.014816,108.249405 89.375893,108.046326 89.566246,107.964661 
	C89.996086,107.772438 90.235573,107.661873 90.870728,107.539185 
	C92.304405,107.850319 93.144638,108.481644 94.116226,109.577698 
	C93.346115,114.043060 90.511719,117.093307 87.863144,120.528786 
z"/>
<path fill="#442A27" opacity="1.000000" stroke="none" 
	d="
M87.814507,120.551338 
	C88.696495,116.885902 91.232567,113.954048 93.354950,110.356903 
	C93.393867,109.817635 93.290733,109.618675 93.099174,109.096054 
	C93.068069,108.087723 93.427696,107.518623 93.953445,106.694344 
	C94.398636,106.404617 94.608215,106.343513 95.137718,106.352188 
	C96.252220,105.935883 97.046791,105.449799 98.125046,104.916367 
	C98.771591,104.765663 99.134438,104.662300 99.973328,104.864990 
	C97.601433,109.210419 94.753502,113.249794 91.869598,117.647797 
	C91.902100,118.484772 91.811401,118.930756 91.313019,119.594330 
	C90.105507,120.074799 89.146523,120.305298 87.814507,120.551338 
z"/>
<path fill="#9E5F3A" opacity="1.000000" stroke="none" 
	d="
M136.436172,222.960876 
	C137.693680,222.077316 139.458084,222.013290 141.619843,222.004456 
	C142.574936,221.411301 143.312469,221.513977 144.381836,221.522614 
	C146.607361,222.183929 148.506897,222.093445 150.756592,221.687897 
	C151.574844,221.516998 152.049408,221.534363 152.757706,221.897736 
	C155.415237,222.648788 157.836227,223.130554 160.596313,223.757172 
	C152.809372,226.162064 144.824554,224.385605 136.436172,222.960876 
z"/>
<path fill="#C77B54" opacity="1.000000" stroke="none" 
	d="
M183.205093,180.131470 
	C182.494476,179.455856 182.016098,179.052139 181.344467,178.515717 
	C184.774902,178.213226 188.398575,178.043411 192.475174,177.830261 
	C197.838181,177.143417 202.769943,177.588211 207.690598,177.523071 
	C213.097015,177.451462 213.538101,178.234497 211.543716,183.387863 
	C211.319290,183.967789 211.398087,184.650864 210.391785,185.262451 
	C209.763565,185.569504 209.482590,185.617599 208.803085,185.526917 
	C207.994034,185.029327 207.689575,184.597763 207.344940,183.752991 
	C203.276962,180.077515 198.596649,181.929535 193.914490,181.490936 
	C193.341919,181.476212 193.112274,181.466263 192.539062,181.414703 
	C189.890793,180.807861 187.582153,180.931168 184.919128,181.292755 
	C184.135254,181.041916 183.761780,180.755249 183.205093,180.131470 
z"/>
<path fill="#512E2B" opacity="1.000000" stroke="none" 
	d="
M208.606537,185.174194 
	C209.548157,184.434692 210.079208,183.617065 210.561340,182.771545 
	C212.464584,179.433731 211.998993,177.614670 207.641190,177.799637 
	C203.056152,177.994247 198.459015,177.903229 193.397614,177.861954 
	C198.719788,176.210602 204.639389,177.169571 210.496719,176.892258 
	C213.151367,176.766586 212.974533,178.985184 213.763947,180.817520 
	C213.330353,184.609558 210.950180,187.053619 208.587708,189.852188 
	C207.732162,190.045776 207.159714,189.927475 206.306793,189.368637 
	C205.345398,187.812164 205.735336,186.778503 206.967346,185.563553 
	C207.599106,185.218353 207.886276,185.150818 208.606537,185.174194 
z"/>
<path fill="#3A292A" opacity="1.000000" stroke="none" 
	d="
M112.800568,178.156921 
	C107.787430,178.264191 102.488998,178.076797 97.189674,178.046844 
	C90.708481,178.010223 90.708160,178.067291 92.986732,184.615723 
	C92.892838,185.123993 92.745071,185.266617 92.317444,185.280502 
	C90.611702,183.578049 89.706856,181.717758 89.002693,179.373932 
	C91.366943,176.729019 94.417725,176.901276 97.351250,177.074234 
	C102.405045,177.372238 107.546440,176.191467 112.800568,178.156921 
z"/>
<path fill="#CD8059" opacity="1.000000" stroke="none" 
	d="
M91.315475,119.931259 
	C91.201859,119.353294 91.339233,118.862282 91.655121,118.188850 
	C92.924225,118.402000 94.117340,118.804901 95.147476,118.174454 
	C100.603127,114.835526 106.422897,115.993256 112.479538,117.126343 
	C110.381821,119.151695 107.862465,118.502205 105.360687,118.120941 
	C104.701698,118.020515 104.229088,117.956314 104.887177,118.061684 
	C104.925873,118.067879 104.938553,118.236519 105.130440,118.548660 
	C105.322327,118.966194 105.347122,119.164635 105.159576,119.574951 
	C102.573486,119.822464 100.199722,119.858093 97.380905,119.929840 
	C95.677345,120.935204 94.226013,120.343727 92.458267,120.350113 
	C91.890999,120.160110 91.728737,120.089172 91.315475,119.931259 
z"/>
<path fill="#442A27" opacity="1.000000" stroke="none" 
	d="
M88.716034,108.372063 
	C87.646667,110.803757 86.250854,113.343819 84.920280,115.917587 
	C84.060127,117.581413 83.444778,119.269638 85.965401,120.647346 
	C81.639076,121.616631 81.358475,118.931183 82.697960,115.825775 
	C83.927155,112.976051 85.425438,110.085197 88.716034,108.372063 
z"/>
<path fill="#915737" opacity="1.000000" stroke="none" 
	d="
M121.286911,147.281555 
	C120.976913,146.464996 120.936440,145.910782 120.990761,145.163147 
	C122.007210,144.285904 122.790276,143.272827 124.590057,143.610291 
	C126.413643,143.569061 127.890022,143.283951 129.128387,144.928833 
	C129.031586,147.147430 130.565308,149.542969 127.254341,150.420959 
	C125.441902,148.877289 123.093254,148.975586 121.286911,147.281555 
z"/>
<path fill="#84553F" opacity="1.000000" stroke="none" 
	d="
M113.334908,158.649887 
	C113.179100,158.989899 113.066582,159.419235 113.044830,159.638229 
	C109.119316,161.975876 106.472046,160.965652 104.990265,156.355072 
	C104.175903,155.276993 103.287750,154.636230 103.908836,153.156708 
	C106.449936,153.313934 107.540649,154.732620 107.957161,156.957245 
	C108.516960,159.947205 110.251923,159.780014 112.568420,158.149567 
	C113.049217,158.078003 113.269966,158.193939 113.334908,158.649887 
z"/>
<path fill="#382221" opacity="1.000000" stroke="none" 
	d="
M131.699982,136.491272 
	C137.455261,133.520584 143.333115,135.642303 149.484436,135.036346 
	C149.938751,135.048676 149.902664,135.535507 149.870758,135.777222 
	C146.207474,136.085388 142.561630,136.383438 138.948456,136.157990 
	C134.702637,135.893036 132.690186,137.442551 133.194000,142.181320 
	C133.186050,142.563431 133.093582,142.859375 133.033997,143.002502 
	C132.732895,143.228500 132.491379,143.311386 131.930481,143.181976 
	C131.546127,142.721939 131.481125,142.474197 131.453796,141.843491 
	C131.525070,139.916199 131.465439,138.371552 131.699982,136.491272 
z"/>
<path fill="#915737" opacity="1.000000" stroke="none" 
	d="
M85.263107,156.164642 
	C84.654167,155.818604 83.642029,155.623398 84.521324,155.311661 
	C85.697594,154.894638 87.102654,155.122925 88.773666,155.080841 
	C90.794800,156.433670 93.290390,157.394547 91.239922,160.602203 
	C86.898880,162.032654 87.326912,157.904221 85.263107,156.164642 
z"/>
<path fill="#AA5F31" opacity="1.000000" stroke="none" 
	d="
M121.008240,147.346954 
	C123.166565,147.673309 126.783318,145.180679 126.998505,150.118011 
	C125.877556,150.554245 124.822815,150.712051 123.365822,150.859344 
	C121.922279,150.975830 120.997528,150.878387 120.811531,149.319214 
	C120.975746,148.549149 120.987419,148.111923 121.008240,147.346954 
z"/>
<path fill="#3C2828" opacity="1.000000" stroke="none" 
	d="
M104.074562,152.627319 
	C104.388565,153.723618 104.591942,154.554489 104.819862,155.702774 
	C104.109436,155.996948 103.374466,155.973709 102.271461,155.959534 
	C101.785019,154.701370 101.556236,153.431442 101.586914,152.167847 
	C101.607430,151.322647 101.431717,149.946686 102.690331,150.015427 
	C103.156204,150.040909 103.541756,151.536682 104.074562,152.627319 
z"/>
<path fill="#182036" opacity="1.000000" stroke="none" 
	d="
M139.615662,177.858215 
	C133.994370,178.019485 127.996956,178.012711 121.540558,177.989044 
	C127.109985,176.317169 133.170135,176.705322 139.615662,177.858215 
z"/>
<path fill="#9B5B35" opacity="1.000000" stroke="none" 
	d="
M90.853073,154.299255 
	C91.373878,153.693817 91.611282,153.399368 92.020630,152.879181 
	C93.333549,155.267899 94.935226,157.846252 92.473801,160.810699 
	C91.372299,158.864838 90.498108,156.854233 90.853073,154.299255 
z"/>
<path fill="#182036" opacity="1.000000" stroke="none" 
	d="
M131.690903,142.559326 
	C132.169891,142.740128 132.334167,142.814285 132.736450,143.017029 
	C132.234634,144.186249 131.231995,144.833801 129.630920,145.235291 
	C128.080322,145.256424 126.897110,145.178055 125.353821,145.073120 
	C124.298172,144.086487 124.617706,143.365326 125.831192,142.624573 
	C126.801895,142.359314 127.467926,142.252335 128.472244,142.170502 
	C129.613312,142.804901 130.508163,142.494919 131.690903,142.559326 
z"/>
<path fill="#382221" opacity="1.000000" stroke="none" 
	d="
M206.346649,158.894470 
	C205.992798,156.536728 205.921814,154.177246 205.836487,151.370743 
	C205.236359,149.101318 205.528931,147.245010 206.008545,145.159393 
	C206.814682,147.392899 207.221161,149.863937 207.763428,152.684677 
	C207.688156,154.731979 207.477097,156.429550 207.229980,158.490417 
	C207.005798,158.866714 206.817657,158.879715 206.346649,158.894470 
z"/>
<path fill="#985F42" opacity="1.000000" stroke="none" 
	d="
M72.490288,155.797699 
	C72.886261,156.465942 72.914001,156.893555 72.901321,157.640793 
	C70.876823,159.743790 68.478493,158.751923 65.831253,158.861328 
	C65.176987,158.597244 64.948647,158.417923 64.626755,157.812073 
	C66.287094,153.556503 69.639542,156.362076 72.490288,155.797699 
z"/>
<path fill="#A26039" opacity="1.000000" stroke="none" 
	d="
M61.388252,160.182739 
	C61.010670,159.514343 60.983238,159.103928 60.929230,158.387589 
	C61.656815,158.026520 62.410976,157.971390 63.541153,157.898834 
	C64.124931,157.695755 64.332680,157.510101 64.785896,157.662704 
	C65.031364,158.000946 65.000252,158.001007 64.988220,157.991150 
	C67.306549,159.092377 69.797287,158.187836 72.523712,158.786530 
	C70.795471,160.933487 68.254128,159.826492 65.516785,160.067307 
	C64.057686,160.786697 62.875233,160.429230 61.388252,160.182739 
z"/>
<path fill="#985F42" opacity="1.000000" stroke="none" 
	d="
M206.374115,144.605774 
	C206.247650,146.637833 206.087082,148.353790 205.874329,150.496735 
	C205.260239,148.814270 204.698334,146.704819 203.962036,144.271179 
	C202.816162,142.602631 202.864029,141.176346 203.716187,139.349335 
	C203.985428,138.991592 204.425980,138.953369 204.646500,138.937225 
	C205.999466,139.920074 205.824844,141.180283 205.816986,142.753723 
	C206.153641,143.464310 206.246841,143.876999 206.374115,144.605774 
z"/>
<path fill="#84553F" opacity="1.000000" stroke="none" 
	d="
M168.071121,80.672531 
	C167.354752,80.635262 166.470718,80.382347 165.292175,80.068832 
	C163.776810,79.636116 162.555939,79.264000 161.113678,78.663483 
	C163.296387,78.876488 166.002075,78.272148 168.071121,80.672531 
z"/>
<path fill="#674028" opacity="1.000000" stroke="none" 
	d="
M90.938393,153.976212 
	C91.424530,156.035431 91.712578,158.082581 92.061943,160.517792 
	C91.926651,160.916595 91.730042,160.927353 91.238846,160.917419 
	C91.112778,158.949951 89.760506,157.485367 89.222900,155.411560 
	C89.672005,154.713104 90.206154,154.338638 90.938393,153.976212 
z"/>
<path fill="#B15E2A" opacity="1.000000" stroke="none" 
	d="
M125.429611,159.940338 
	C124.382286,159.517303 123.724792,159.136703 122.728096,158.559753 
	C125.115730,157.724167 126.905785,157.820938 128.729309,159.490601 
	C127.901466,159.819046 126.860458,159.900909 125.429611,159.940338 
z"/>
<path fill="#84553F" opacity="1.000000" stroke="none" 
	d="
M216.253372,113.216415 
	C216.342422,112.045815 216.616837,111.207779 217.020966,110.065239 
	C217.150681,109.760727 217.604858,109.598747 217.828796,109.688049 
	C218.222763,110.054398 218.406967,110.321671 218.758743,110.764786 
	C219.167313,112.144554 219.422470,113.338715 219.681396,114.896255 
	C217.563034,116.663101 217.121780,114.876587 216.253372,113.216415 
z"/>
<path fill="#382221" opacity="1.000000" stroke="none" 
	d="
M107.366562,139.047302 
	C107.727814,140.301361 108.434914,142.010666 106.715233,142.612167 
	C105.785492,142.937393 105.405342,141.562881 105.182312,140.356934 
	C105.824028,139.757599 106.469223,139.447128 107.366562,139.047302 
z"/>
<path fill="#182036" opacity="1.000000" stroke="none" 
	d="
M60.035213,134.421356 
	C59.852448,132.014191 61.459454,133.322723 62.599098,133.320343 
	C62.196217,134.561737 61.016529,134.006424 60.035213,134.421356 
z"/>
<path fill="#B15E2A" opacity="1.000000" stroke="none" 
	d="
M65.240875,157.708771 
	C64.845741,157.983856 64.660118,157.966751 64.195839,157.915527 
	C63.923752,157.481277 63.930325,157.081146 63.937164,156.379761 
	C63.812794,155.882965 63.688160,155.687408 63.800789,155.237488 
	C66.690224,154.987869 69.342392,154.992599 72.434814,155.009186 
	C72.896347,155.190765 72.917648,155.360474 72.898735,155.784256 
	C70.351631,156.296082 67.611908,155.302399 65.240875,157.708771 
z"/>
<path fill="#764D3F" opacity="1.000000" stroke="none" 
	d="
M196.184418,149.230942 
	C196.353897,147.098190 196.754288,144.749649 197.250641,141.983353 
	C198.480789,144.229370 198.010300,146.692551 196.184418,149.230942 
z"/>
<path fill="#84553F" opacity="1.000000" stroke="none" 
	d="
M202.257996,89.512878 
	C200.169662,89.494835 198.562119,88.223579 197.315247,85.910156 
	C199.271454,86.162117 200.464874,87.957870 202.257996,89.512878 
z"/>
<path fill="#84553F" opacity="1.000000" stroke="none" 
	d="
M195.194153,83.947922 
	C193.432892,83.973961 191.463837,83.802528 190.195343,81.545670 
	C191.922058,81.649307 193.522095,82.562477 195.194153,83.947922 
z"/>
<path fill="#764D3F" opacity="1.000000" stroke="none" 
	d="
M191.252686,152.537659 
	C191.883911,151.089233 193.402527,150.533981 195.298416,150.062256 
	C194.884384,151.862015 193.151779,152.054550 191.252686,152.537659 
z"/>
<path fill="#915737" opacity="1.000000" stroke="none" 
	d="
M120.745926,149.122284 
	C121.497993,149.482315 122.031906,149.978287 122.764702,150.661560 
	C122.450356,151.121231 121.937126,151.393600 121.181496,151.827438 
	C119.765404,151.234802 119.177132,150.392517 120.745926,149.122284 
z"/>
<path fill="#764D3F" opacity="1.000000" stroke="none" 
	d="
M39.451164,152.996353 
	C39.716759,153.097076 39.843586,153.577988 40.013100,154.428772 
	C40.893089,156.241608 40.304337,157.838898 40.751999,159.674942 
	C40.956039,160.003799 41.021633,160.343430 41.027786,160.515778 
	C37.284328,158.998672 39.515617,155.901001 39.451164,152.996353 
z"/>
<path fill="#84553F" opacity="1.000000" stroke="none" 
	d="
M211.619720,99.821915 
	C209.799530,99.319221 208.553848,97.937286 207.945953,95.617249 
	C209.100021,96.705353 210.319870,98.112137 211.619720,99.821915 
z"/>
<path fill="#9D5B36" opacity="1.000000" stroke="none" 
	d="
M152.497360,77.225067 
	C150.562943,78.161697 148.178162,78.206894 145.430756,77.410812 
	C147.416382,77.235153 149.743393,77.181625 152.497360,77.225067 
z"/>
<path fill="#9E5D38" opacity="1.000000" stroke="none" 
	d="
M92.078003,103.915115 
	C93.155586,104.418144 94.026749,105.110214 95.177780,106.112122 
	C95.457649,106.421959 95.392464,106.456108 95.374390,106.424057 
	C94.574890,106.414330 94.189171,106.984818 93.509109,107.730713 
	C92.790665,108.077049 92.345757,108.072449 91.602310,107.770752 
	C91.106369,107.486664 90.908340,107.372231 90.661407,106.918221 
	C91.032204,105.753815 91.451897,104.928978 92.078003,103.915115 
z"/>
<path fill="#182036" opacity="1.000000" stroke="none" 
	d="
M167.839218,96.855026 
	C167.799500,96.565727 167.752808,96.298180 167.853027,96.208702 
	C168.770370,96.825195 169.727722,97.472252 169.390610,98.773872 
	C169.343338,98.956459 168.950439,99.049522 168.717529,99.184021 
	C168.438004,98.504112 168.158478,97.824211 167.839218,96.855026 
z"/>
<path fill="#9A5C3A" opacity="1.000000" stroke="none" 
	d="
M161.612152,158.342285 
	C162.178558,158.081512 162.729660,158.032059 163.693481,157.949860 
	C164.519836,157.521194 165.011581,157.351074 165.935150,157.606415 
	C166.765625,158.540466 166.835831,159.304245 166.189499,160.407532 
	C165.492859,160.743378 165.061768,160.772354 164.311218,160.743240 
	C163.348480,160.270432 162.763000,159.784454 161.972839,159.101990 
	C161.726288,158.957077 161.596832,158.553619 161.612152,158.342285 
z"/>
<path fill="#D07951" opacity="1.000000" stroke="none" 
	d="
M105.390793,119.865105 
	C104.947243,119.786835 104.928711,119.492851 104.920898,119.345779 
	C107.397499,117.113327 110.140266,118.009850 113.146469,118.944473 
	C113.444138,119.377838 113.216949,119.681786 113.108757,119.837624 
	C110.611824,119.976768 108.223083,119.960068 105.390793,119.865105 
z"/>
<path fill="#B15E2A" opacity="1.000000" stroke="none" 
	d="
M72.902733,158.753662 
	C70.456779,158.909409 68.005638,159.282623 65.331284,158.147293 
	C67.314415,157.979858 69.652634,157.978439 72.425888,157.968704 
	C72.888908,158.136703 72.916901,158.312988 72.902733,158.753662 
z"/>
<path fill="#9E5D38" opacity="1.000000" stroke="none" 
	d="
M98.754044,96.877434 
	C98.587440,98.236977 97.575218,99.148125 95.884499,99.810593 
	C96.554878,98.950233 97.524254,97.972153 98.754044,96.877434 
z"/>
<path fill="#AA5824" opacity="1.000000" stroke="none" 
	d="
M166.244995,160.683289 
	C165.943451,160.099808 165.962936,159.485229 165.978851,158.562897 
	C165.589447,157.806000 165.430786,157.287354 165.739441,156.352203 
	C166.467377,156.538208 166.955078,157.071259 167.624176,157.808426 
	C168.171890,159.258469 167.523727,160.028000 166.244995,160.683289 
z"/>
<path fill="#512E2B" opacity="1.000000" stroke="none" 
	d="
M118.766190,82.870049 
	C118.245743,83.322609 117.484169,83.703819 116.400574,84.117386 
	C116.591087,83.150772 117.382530,82.656837 118.766190,82.870049 
z"/>
<path fill="#512E2B" opacity="1.000000" stroke="none" 
	d="
M110.796371,86.990204 
	C110.321106,87.447296 109.615921,87.820496 108.607712,88.192108 
	C108.731903,87.187057 109.449005,86.694145 110.796371,86.990204 
z"/>
<path fill="#9F572C" opacity="1.000000" stroke="none" 
	d="
M60.794594,159.990692 
	C62.120731,159.948792 63.203365,159.972824 64.693863,160.010864 
	C63.473305,161.013092 61.680416,160.841278 59.524227,160.682739 
	C59.615551,160.421082 60.083321,160.238876 60.794594,159.990692 
z"/>
<path fill="#B15E2A" opacity="1.000000" stroke="none" 
	d="
M206.147339,142.784058 
	C205.693649,141.916412 205.326843,140.781204 204.913544,139.283539 
	C205.862640,138.242889 205.846939,139.148117 206.119263,139.868088 
	C206.411636,140.438080 206.513077,140.859558 206.435043,141.645355 
	C206.339859,142.156631 206.287033,142.336578 206.147339,142.784058 
z"/>
<path fill="#985F42" opacity="1.000000" stroke="none" 
	d="
M144.121704,159.739136 
	C143.700256,159.087738 142.501602,158.296478 143.649765,157.201508 
	C143.798935,157.463669 143.948120,157.725830 144.145691,158.186951 
	C144.206833,158.752075 144.219559,159.118225 144.121704,159.739136 
z"/>
<path fill="#442A27" opacity="1.000000" stroke="none" 
	d="
M92.348862,120.353531 
	C93.411926,120.096024 94.770599,119.960991 96.532547,119.895950 
	C95.589767,120.845947 94.149414,120.932716 92.348862,120.353531 
z"/>
<path fill="#764D3F" opacity="1.000000" stroke="none" 
	d="
M39.854191,141.227692 
	C39.930275,142.046539 39.933292,143.157990 39.851158,144.674072 
	C39.771038,143.892593 39.776081,142.706436 39.854191,141.227692 
z"/>
<path fill="#9D5B36" opacity="1.000000" stroke="none" 
	d="
M134.645416,78.197021 
	C134.790146,78.437775 134.593246,78.640533 134.227676,78.975433 
	C133.346146,79.103096 132.620789,79.086479 131.534622,79.063599 
	C132.221313,78.761948 133.268799,78.466560 134.645416,78.197021 
z"/>
<path fill="#9B5B35" opacity="1.000000" stroke="none" 
	d="
M161.791061,159.279877 
	C162.363388,159.381119 163.000473,159.805145 163.814682,160.457169 
	C163.052734,160.772385 162.250549,160.589569 161.791061,159.279877 
z"/>
<path fill="#9D5B36" opacity="1.000000" stroke="none" 
	d="
M157.734344,77.979141 
	C157.390472,78.079773 156.824997,78.049889 156.130402,77.893295 
	C156.505096,77.793938 157.008911,77.821274 157.734344,77.979141 
z"/>
<path fill="#764D3F" opacity="1.000000" stroke="none" 
	d="
M215.607880,105.849319 
	C215.204254,105.525307 214.780457,104.910851 214.303940,104.016632 
	C214.696716,104.344200 215.142212,104.951538 215.607880,105.849319 
z"/>
<path fill="#512E2B" opacity="1.000000" stroke="none" 
	d="
M115.198578,84.546822 
	C114.868668,84.951263 114.246613,85.404488 113.334061,85.891479 
	C113.664520,85.482048 114.285484,85.038826 115.198578,84.546822 
z"/>
<path fill="#84553F" opacity="1.000000" stroke="none" 
	d="
M205.726105,92.769119 
	C205.411560,92.709328 204.977936,92.395676 204.374176,91.869110 
	C204.671707,91.942543 205.139359,92.228897 205.726105,92.769119 
z"/>
<path fill="#84553F" opacity="1.000000" stroke="none" 
	d="
M204.264954,91.514496 
	C203.965790,91.406593 203.587128,91.032677 203.080505,90.425568 
	C203.363510,90.544418 203.774475,90.896461 204.264954,91.514496 
z"/>
<path fill="#382221" opacity="1.000000" stroke="none" 
	d="
M206.515396,141.727020 
	C206.325729,141.551971 206.258774,141.127258 206.182419,140.376099 
	C206.173019,140.049622 206.549438,139.931870 206.741364,139.886230 
	C206.834900,140.386200 206.736511,140.931778 206.515396,141.727020 
z"/>
<path fill="#9B5B35" opacity="1.000000" stroke="none" 
	d="
M92.040115,149.826355 
	C91.980621,149.902435 91.959679,149.569992 91.948868,149.404999 
	C92.100380,149.371979 92.154236,149.542068 92.040115,149.826355 
z"/>
<path fill="#A26039" opacity="1.000000" stroke="none" 
	d="
M91.171722,107.809982 
	C90.760208,108.006241 90.559364,107.982559 90.057556,107.920944 
	C89.911011,107.567719 90.065422,107.252426 90.416168,106.757889 
	C90.612511,106.578651 90.834915,106.827293 90.947945,106.949966 
	C91.168114,107.245102 91.275261,107.417572 91.171722,107.809982 
z"/>
<path fill="#764D3F" opacity="1.000000" stroke="none" 
	d="
M195.380402,137.665665 
	C195.373138,137.757263 195.124008,137.562241 195.103943,137.483398 
	C195.083862,137.404556 195.387665,137.574066 195.380402,137.665665 
z"/>
<path fill="#764D3F" opacity="1.000000" stroke="none" 
	d="
M216.194122,106.869446 
	C216.190414,106.964424 215.936279,106.782990 215.903076,106.710831 
	C215.869888,106.638672 216.197845,106.774475 216.194122,106.869446 
z"/>
<path fill="#3C2828" opacity="1.000000" stroke="none" 
	d="
M217.951523,109.638016 
	C218.052734,109.777359 217.601151,109.792068 217.375916,109.776398 
	C217.150681,109.760727 217.219025,109.393906 217.278549,109.217834 
	C217.531952,109.168137 217.702698,109.320442 217.951523,109.638016 
z"/>
<path fill="#9E5D38" opacity="1.000000" stroke="none" 
	d="
M101.654221,93.836716 
	C101.635696,93.962860 101.363457,94.254097 100.865067,94.742683 
	C100.892792,94.627296 101.146652,94.314552 101.654221,93.836716 
z"/>
<path fill="#84553F" opacity="1.000000" stroke="none" 
	d="
M212.000824,100.658524 
	C211.954620,100.671692 211.928772,100.641724 211.925323,100.631271 
	C211.921890,100.620819 212.047043,100.645355 212.000824,100.658524 
z"/>
<path fill="#3A292A" opacity="1.000000" stroke="none" 
	d="
M100.684967,104.945831 
	C100.109734,105.120369 99.770111,105.069702 98.919609,104.944031 
	C100.679733,100.623886 104.737160,98.033295 108.074738,94.316040 
	C108.468613,93.553749 108.825119,93.238869 109.666603,93.086258 
	C117.011520,89.902122 123.535744,85.577026 131.699860,84.270317 
	C133.129547,83.003181 134.710251,83.713791 136.336929,83.037178 
	C138.290146,82.576149 139.382019,83.445908 140.685547,84.654282 
	C125.343170,87.073151 112.514938,94.645599 100.684967,104.945831 
z"/>
<path fill="#36272B" opacity="1.000000" stroke="none" 
	d="
M141.316422,85.075806 
	C139.696426,84.670425 138.503067,84.326607 136.949951,83.874619 
	C137.001068,82.295029 138.102448,82.108551 139.809601,82.406830 
	C140.907974,82.502357 141.583954,82.454437 142.598877,82.403534 
	C143.485718,82.583130 144.029053,82.505180 144.822144,82.253784 
	C145.072876,82.135689 145.087128,82.046150 145.048401,82.022568 
	C148.374786,80.304611 151.842331,80.871628 155.667603,81.862122 
	C157.369553,82.490646 158.718018,82.789246 160.412445,83.095886 
	C162.551575,83.795593 164.436661,84.318802 166.109039,85.231720 
	C167.470322,85.974808 166.989487,86.676651 165.335663,86.895950 
	C157.378983,85.225243 149.493515,86.051826 141.316422,85.075806 
z"/>
<path fill="#E67C3D" opacity="1.000000" stroke="none" 
	d="
M124.117249,118.943825 
	C123.422028,119.126183 123.087250,119.141342 122.501602,119.113281 
	C119.273438,117.488121 115.827454,119.551033 112.905624,117.423096 
	C112.947441,116.983177 112.962692,116.978004 112.965508,116.969009 
	C118.749863,116.960014 124.531403,116.960014 130.312943,116.960014 
	C130.336319,117.169571 130.359695,117.379120 130.383072,117.588676 
	C128.414627,117.984665 126.446167,118.380646 124.117249,118.943825 
z"/>
<path fill="#CB703B" opacity="1.000000" stroke="none" 
	d="
M159.406860,90.818268 
	C160.445984,90.939789 161.206223,91.229286 161.276062,92.199478 
	C161.284164,92.312012 160.469406,92.666985 160.107941,92.586601 
	C159.227005,92.390701 157.958344,92.223175 159.406860,90.818268 
z"/>
<path fill="#CB703B" opacity="1.000000" stroke="none" 
	d="
M131.959534,96.815842 
	C132.308517,97.841644 131.920349,98.241692 131.107086,97.924728 
	C130.810364,97.809082 130.711929,97.184654 130.523026,96.792351 
	C130.958435,96.752632 131.393845,96.712914 131.959534,96.815842 
z"/>
<path fill="#CD8059" opacity="1.000000" stroke="none" 
	d="
M108.571632,113.045372 
	C109.392654,113.098541 109.994217,113.160294 110.876083,113.250809 
	C109.647812,114.265434 108.593887,113.903824 107.564178,113.708107 
	C107.515701,113.698891 107.465485,113.369141 107.489449,113.358810 
	C107.768875,113.238289 108.062393,113.150436 108.571632,113.045372 
z"/>
<path fill="#CB703B" opacity="1.000000" stroke="none" 
	d="
M146.124146,102.983810 
	C146.363312,102.848000 146.595764,102.830582 146.828217,102.813156 
	C146.821396,102.942505 146.814575,103.071861 146.807739,103.201218 
	C146.577637,103.168213 146.347549,103.135208 146.124146,102.983810 
z"/>
<path fill="#CB703B" opacity="1.000000" stroke="none" 
	d="
M178.959259,110.811897 
	C178.498398,111.349167 178.055939,111.365669 177.773987,110.881851 
	C177.674194,110.710609 177.896698,110.351547 177.972061,110.078232 
	C178.315994,110.267937 178.659912,110.457634 178.959259,110.811897 
z"/>
<path fill="#CB703B" opacity="1.000000" stroke="none" 
	d="
M175.031311,112.269775 
	C175.674789,112.651657 176.550125,113.212105 176.313751,114.355659 
	C176.292542,114.458321 176.035843,114.617546 175.950195,114.585533 
	C174.983032,114.223930 175.196625,113.307755 175.031311,112.269775 
z"/>
<path fill="#CB703B" opacity="1.000000" stroke="none" 
	d="
M174.995270,111.999924 
	C174.814743,111.733292 174.623596,111.469345 174.490311,111.178856 
	C174.455048,111.102005 174.598068,110.943382 174.659210,110.822311 
	C174.776749,111.091415 174.894287,111.360527 175.019485,111.801453 
	C175.027161,111.973274 175.006317,111.992676 174.995270,111.999924 
z"/>
<path fill="#442A27" opacity="1.000000" stroke="none" 
	d="
M254.545624,148.404846 
	C254.627151,149.529251 254.413574,150.346710 253.335953,150.093124 
	C252.632507,149.927582 252.523148,149.146820 252.751297,148.520096 
	C253.094376,147.577713 253.675385,147.249725 254.545624,148.404846 
z"/>
<path fill="#1F1B2E" opacity="1.000000" stroke="none" 
	d="
M113.322617,158.605881 
	C113.129967,158.815414 113.080833,158.640945 112.930084,158.214264 
	C112.847473,157.209579 112.866486,156.457108 112.844162,155.330170 
	C112.731880,154.793671 112.660942,154.631622 112.708603,154.232208 
	C112.911522,150.654251 112.995842,147.313660 113.124557,143.520538 
	C114.547417,148.094193 114.276207,153.152740 113.322617,158.605881 
z"/>
<path fill="#AA5824" opacity="1.000000" stroke="none" 
	d="
M99.051865,148.175598 
	C99.303223,147.415466 99.625748,147.206100 99.864235,147.916046 
	C100.010414,148.351196 99.972961,148.870361 99.924263,149.342133 
	C99.878906,149.781616 99.709534,150.208298 99.274467,151.847076 
	C99.135468,149.881882 99.082306,149.130219 99.051865,148.175598 
z"/>
<path fill="#AA5824" opacity="1.000000" stroke="none" 
	d="
M98.655151,156.624115 
	C98.832123,156.408554 99.041801,156.312454 99.251488,156.216370 
	C99.288345,156.347397 99.325195,156.478439 99.362045,156.609467 
	C99.137321,156.654190 98.912590,156.698898 98.655151,156.624115 
z"/>
<path fill="#84553F" opacity="1.000000" stroke="none" 
	d="
M112.776237,154.110336 
	C112.827202,153.994843 112.876587,154.477478 112.839706,154.716614 
	C112.689499,154.721863 112.663651,154.478561 112.776237,154.110336 
z"/>
<path fill="#442A27" opacity="1.000000" stroke="none" 
	d="
M204.827240,193.847351 
	C201.441849,199.631088 196.030762,203.162094 191.098755,207.670776 
	C190.388474,209.892975 188.556290,210.762161 187.075684,212.309235 
	C186.303940,212.594528 185.855499,212.755142 185.073456,213.072006 
	C183.002365,213.385880 181.478699,214.589294 179.266953,214.129898 
	C178.679611,213.823288 178.468857,213.654358 178.042267,213.139053 
	C177.471161,211.716690 177.623749,210.615341 177.805130,209.133575 
	C178.115738,208.539703 178.284225,208.331909 178.785278,207.919159 
	C179.551147,207.483521 179.986252,207.256241 180.716736,206.872070 
	C181.726196,206.289612 182.367493,205.758163 183.288651,205.127472 
	C183.963181,204.607986 184.479813,204.378464 185.210648,203.924896 
	C185.655899,203.691284 185.839890,203.604187 186.302734,203.376923 
	C186.767578,203.134003 186.953552,203.031265 187.416840,202.761841 
	C189.802032,201.336838 191.463379,199.397842 194.156647,198.389893 
	C196.833771,197.028748 199.127182,195.732925 200.390015,193.245712 
	C201.069016,191.908371 201.980164,191.188416 203.851517,191.906570 
	C204.491959,192.521515 204.653046,192.987930 204.827240,193.847351 
z"/>
<path fill="#AA5F31" opacity="1.000000" stroke="none" 
	d="
M179.036346,213.221527 
	C180.868347,212.867203 182.376755,212.439331 184.219788,211.977814 
	C184.991699,211.814209 185.384186,211.600098 185.995209,211.093094 
	C187.004700,209.071442 188.933762,209.056625 190.594727,208.063965 
	C191.981949,210.998337 189.844788,212.876877 187.725662,213.505112 
	C182.464630,215.064835 177.936340,218.276215 172.335571,219.851120 
	C171.115555,219.529694 170.446640,218.854767 170.109863,217.553864 
	C170.126205,215.525650 171.639389,215.008331 173.040054,213.956650 
	C174.009460,213.543793 174.705444,213.473541 175.727829,213.304565 
	C176.506668,213.177231 176.950546,213.108612 177.727432,213.036697 
	C178.277466,213.068893 178.495117,213.108444 179.036346,213.221527 
z"/>
<path fill="#1F1B2E" opacity="1.000000" stroke="none" 
	d="
M205.162292,193.893143 
	C204.684692,193.836853 204.368149,193.489014 203.830597,192.866928 
	C202.084534,189.889725 203.151932,188.646530 206.387436,188.584656 
	C207.141464,189.056152 207.483017,189.334854 208.077026,189.828583 
	C207.327454,191.229614 206.325394,192.415604 205.162292,193.893143 
z"/>
<path fill="#1F1B2E" opacity="1.000000" stroke="none" 
	d="
M121.512222,212.307892 
	C118.124756,209.529037 113.875526,208.873962 110.930840,205.493622 
	C110.511482,204.621246 110.547455,204.052322 111.171577,203.190109 
	C113.154572,201.975143 114.749466,202.426147 115.997063,203.515854 
	C118.839264,205.998383 122.439423,207.031021 126.004860,209.099701 
	C127.331757,210.280655 127.301796,211.518021 127.408722,213.142517 
	C127.267708,213.840042 127.147911,214.101700 126.710297,214.645905 
	C126.130417,215.024261 125.868378,215.120087 125.193359,215.206314 
	C123.411224,214.762650 122.720322,213.533676 121.512222,212.307892 
z"/>
<path fill="#342226" opacity="1.000000" stroke="none" 
	d="
M112.434311,203.497070 
	C111.854073,204.160019 111.533508,204.456238 110.977356,204.979370 
	C107.563454,203.853867 105.297966,201.396301 102.877975,198.621262 
	C102.347588,197.366852 102.687836,196.601334 103.917679,195.842377 
	C109.904884,196.428238 111.561539,197.904465 112.434311,203.497070 
z"/>
<path fill="#36272B" opacity="1.000000" stroke="none" 
	d="
M92.135590,185.456970 
	C92.204422,185.121307 92.371262,185.090881 92.789352,185.020920 
	C94.949883,185.123596 95.547981,187.225037 97.463036,187.943298 
	C98.955902,188.493927 100.079048,188.972397 100.293510,190.918930 
	C100.156601,192.385742 99.655556,193.101486 98.208267,193.320526 
	C95.914139,190.733749 94.073875,188.247971 92.135590,185.456970 
z"/>
<path fill="#442A27" opacity="1.000000" stroke="none" 
	d="
M97.931198,193.492737 
	C98.114700,192.635910 98.474998,192.052292 98.972359,191.153076 
	C99.891327,190.411026 100.719650,190.430237 101.976013,190.678787 
	C103.799438,192.548599 107.653046,193.076950 104.999313,196.839325 
	C104.097969,197.302307 103.608780,197.634872 102.896973,198.165344 
	C100.913689,197.067764 99.296684,195.629562 97.931198,193.492737 
z"/>
<path fill="#B15E2A" opacity="1.000000" stroke="none" 
	d="
M127.259460,215.290833 
	C125.988060,216.957413 124.273674,217.843826 121.784416,217.736954 
	C121.362251,216.262360 121.300865,214.807312 121.244171,213.029419 
	C122.325546,212.744202 123.320320,213.091415 124.586899,213.639053 
	C124.878349,213.765274 124.940742,213.962463 124.968552,214.062057 
	C125.296165,214.400070 125.617157,214.605377 126.240265,214.834167 
	C126.700943,214.955399 126.880730,215.019974 127.259460,215.290833 
z"/>
<path fill="#3A292A" opacity="1.000000" stroke="none" 
	d="
M124.685501,213.545166 
	C123.739998,214.017960 122.688705,213.900009 121.529739,212.875610 
	C121.248848,212.706573 121.244247,212.349899 121.254112,212.172882 
	C122.504066,212.040909 123.570831,212.506958 124.685501,213.545166 
z"/>
<path fill="#B15E2A" opacity="1.000000" stroke="none" 
	d="
M119.073456,214.114746 
	C119.028366,214.153076 118.883919,213.898941 118.883919,213.898941 
	C118.883919,213.898941 119.118553,214.076416 119.073456,214.114746 
z"/>
<path fill="#B15E2A" opacity="1.000000" stroke="none" 
	d="
M114.865173,211.977463 
	C114.869278,211.918243 115.148033,211.993027 115.148033,211.993027 
	C115.148033,211.993027 114.861061,212.036682 114.865173,211.977463 
z"/>
<path fill="#B15E2A" opacity="1.000000" stroke="none" 
	d="
M210.818237,155.492218 
	C212.236801,155.258148 213.503632,155.125885 213.682175,156.717239 
	C213.766846,157.471893 212.961166,157.825943 212.291992,157.772171 
	C211.026688,157.670441 209.406784,157.702606 210.818237,155.492218 
z"/>
<path fill="#AA5F31" opacity="1.000000" stroke="none" 
	d="
M219.142670,156.429047 
	C219.621201,157.064926 219.370483,157.358414 218.791306,157.444489 
	C218.659744,157.464050 218.427643,157.374649 218.375702,157.269363 
	C218.060043,156.629410 218.477509,156.456711 219.142670,156.429047 
z"/>
<path fill="#3C2828" opacity="1.000000" stroke="none" 
	d="
M84.412842,147.981445 
	C85.702393,147.825714 85.985298,148.512131 85.753799,149.369110 
	C85.669312,149.681870 84.996414,150.134079 84.748489,150.051682 
	C83.775261,149.728226 83.863594,148.941956 84.412842,147.981445 
z"/>
<path fill="#B15E2A" opacity="1.000000" stroke="none" 
	d="
M216.034332,113.255890 
	C217.093979,113.571831 218.119919,114.259804 219.415527,115.103714 
	C219.791733,115.609505 219.898285,115.959366 220.051361,116.581268 
	C219.636414,117.363739 218.989639,117.491982 218.177460,117.945633 
	C217.978989,118.202843 217.543091,118.177216 217.330368,118.128082 
	C215.979401,117.730377 216.009277,116.694084 215.851013,115.463783 
	C215.947220,114.621376 215.973923,114.124657 216.034332,113.255890 
z"/>
<path fill="#84553F" opacity="1.000000" stroke="none" 
	d="
M215.679779,115.070343 
	C216.260040,115.897888 216.599564,116.677673 217.028381,117.768204 
	C215.026535,118.391899 215.302216,116.712463 214.968323,115.230591 
	C214.958282,114.923485 215.439026,115.022583 215.679779,115.070343 
z"/>
<path fill="#84553F" opacity="1.000000" stroke="none" 
	d="
M218.320648,118.182632 
	C218.498215,117.849991 219.017441,117.497147 219.817276,116.998810 
	C219.619354,117.289696 219.140823,117.726067 218.320648,118.182632 
z"/>
<path fill="#342226" opacity="1.000000" stroke="none" 
	d="
M191.770309,143.935440 
	C191.198441,146.434052 190.012451,148.103394 187.646866,146.906891 
	C186.351212,146.251526 186.758392,144.314011 187.446671,143.314835 
	C188.799408,141.351166 190.403320,141.703720 191.770309,143.935440 
z"/>
<path fill="#342226" opacity="1.000000" stroke="none" 
	d="
M49.914528,146.597656 
	C48.246624,147.060989 46.143360,148.788330 45.517124,145.749374 
	C45.288734,144.641083 45.519245,143.413177 46.526157,142.597778 
	C47.365055,141.918442 48.394199,141.750198 49.295715,142.293610 
	C50.961639,143.297791 50.396767,144.819199 49.914528,146.597656 
z"/>
<path fill="#AA5824" opacity="1.000000" stroke="none" 
	d="
M49.886429,146.950714 
	C52.449062,146.203445 51.265732,143.144180 53.200859,141.555389 
	C54.347271,144.289474 54.066559,146.587692 52.188538,148.466476 
	C51.207802,149.447632 50.461884,148.503784 49.954327,147.206573 
	C49.841335,146.939011 49.893387,146.968246 49.886429,146.950714 
z"/>
<path fill="#512E2B" opacity="1.000000" stroke="none" 
	d="
M40.963184,159.617508 
	C40.034817,158.659866 39.953884,157.141113 40.046593,155.193420 
	C41.036816,156.136673 41.028980,157.678711 40.963184,159.617508 
z"/>
<path fill="#342226" opacity="1.000000" stroke="none" 
	d="
M125.773590,142.418411 
	C125.827309,143.153091 125.518768,143.839874 125.101982,144.786606 
	C123.948685,145.073303 122.903625,145.100052 121.472061,145.048264 
	C121.631264,142.611771 123.399811,142.288956 125.773590,142.418411 
z"/>
<path fill="#985F42" opacity="1.000000" stroke="none" 
	d="
M131.585785,136.104401 
	C131.898788,137.683258 131.906204,139.211273 131.892609,141.119568 
	C131.716751,141.823929 131.561890,142.147980 131.194412,141.977051 
	C131.204590,138.445480 129.514175,137.053192 126.453842,136.458725 
	C127.191559,136.225937 128.238129,136.107208 129.673325,135.907257 
	C130.468033,135.901855 130.874100,135.977707 131.585785,136.104401 
z"/>
<path fill="#342226" opacity="1.000000" stroke="none" 
	d="
M130.613647,141.578888 
	C130.981781,141.482025 131.426178,141.498199 131.648895,141.499023 
	C131.893265,141.695374 131.914948,141.890900 131.971130,142.376190 
	C131.038498,142.996063 130.070755,143.343277 128.977158,142.379089 
	C129.288849,142.022369 129.767181,141.849060 130.613647,141.578888 
z"/>
<path fill="#9E5F3A" opacity="1.000000" stroke="none" 
	d="
M159.473358,145.792450 
	C160.369095,144.837296 160.197174,142.425095 161.629669,143.709366 
	C163.287811,145.195908 162.744400,147.207626 160.694427,148.828049 
	C158.705078,148.642624 159.089203,147.396088 159.473358,145.792450 
z"/>
<path fill="#512E2B" opacity="1.000000" stroke="none" 
	d="
M159.440979,145.570099 
	C159.843872,146.343750 160.060593,147.314789 160.369843,148.651169 
	C160.063828,149.886108 159.561172,151.338928 158.503098,150.422958 
	C156.587082,148.764297 158.217361,147.211533 159.440979,145.570099 
z"/>
<path fill="#674028" opacity="1.000000" stroke="none" 
	d="
M165.855408,155.815918 
	C165.984238,156.503265 165.988831,157.001389 165.984344,157.877319 
	C165.558105,158.189590 165.140945,158.124054 164.414978,157.987823 
	C164.097031,156.849136 163.351196,155.624176 164.658020,154.855072 
	C164.811279,154.764877 165.363754,155.353012 165.855408,155.815918 
z"/>
<path fill="#9F572C" opacity="1.000000" stroke="none" 
	d="
M154.986954,154.720459 
	C154.833115,154.781219 154.660889,154.611557 154.535614,154.412369 
	C154.512512,154.375626 154.679428,154.219360 154.867004,154.058502 
	C154.975388,153.998718 154.984726,154.479858 154.986954,154.720459 
z"/>
<path fill="#B15E2A" opacity="1.000000" stroke="none" 
	d="
M203.718109,139.163086 
	C203.943176,140.369675 203.900925,141.747757 203.823151,143.536423 
	C200.977646,142.606552 201.912827,140.992584 203.718109,139.163086 
z"/>
<path fill="#764D3F" opacity="1.000000" stroke="none" 
	d="
M140.176178,82.399323 
	C139.257294,82.861496 138.282608,83.172707 136.949066,83.625191 
	C135.331558,83.879646 134.072891,83.992821 132.431702,84.118622 
	C133.472916,83.515442 134.896667,82.899643 136.648438,82.204155 
	C137.546173,81.190819 138.448990,81.579323 139.614899,81.754913 
	C139.982620,81.957405 140.120361,82.248352 140.176178,82.399323 
z"/>
<path fill="#B15E2A" opacity="1.000000" stroke="none" 
	d="
M109.873871,92.842079 
	C109.610771,93.401306 109.186073,93.680771 108.503647,93.987442 
	C107.885941,93.224670 107.525963,92.434692 107.087585,91.326645 
	C108.103676,91.189919 109.095734,91.549469 109.873871,92.842079 
z"/>
<path fill="#B15E2A" opacity="1.000000" stroke="none" 
	d="
M134.111176,80.162659 
	C134.797470,80.214233 135.610718,80.453011 136.700378,80.850449 
	C136.016586,80.985962 135.012100,81.146744 134.111176,80.162659 
z"/>
<path fill="#B15E2A" opacity="1.000000" stroke="none" 
	d="
M139.703339,81.809586 
	C139.231766,82.016411 138.480896,82.075409 137.353241,82.129440 
	C136.975464,81.942467 136.974472,81.760475 136.979523,81.305702 
	C137.798416,81.242538 138.611237,81.452148 139.703339,81.809586 
z"/>
<path fill="#9F572C" opacity="1.000000" stroke="none" 
	d="
M152.496887,156.994995 
	C152.514740,156.989883 152.479050,157.000092 152.496887,156.994995 
z"/>
<path fill="#9D5B36" opacity="1.000000" stroke="none" 
	d="
M155.791718,81.887512 
	C152.653625,82.162178 149.286179,82.132309 145.464203,82.050720 
	C148.415817,79.033730 151.951279,79.349281 155.791718,81.887512 
z"/>
<path fill="#764D3F" opacity="1.000000" stroke="none" 
	d="
M144.800964,82.109650 
	C144.542603,82.264313 144.012314,82.392937 143.209930,82.461060 
	C143.468231,82.294914 143.998642,82.189262 144.800964,82.109650 
z"/>
<path fill="#512E2B" opacity="1.000000" stroke="none" 
	d="
M174.330521,215.164429 
	C172.931580,216.068192 171.783630,216.567749 170.337784,217.167175 
	C168.327759,217.063416 166.937546,217.873062 165.215302,218.757294 
	C161.691452,217.000641 158.057022,219.754471 154.605682,217.480072 
	C154.283524,216.808167 154.232712,216.502426 154.305359,215.741943 
	C157.115707,211.363953 161.301682,213.043259 165.362625,212.466461 
	C168.561600,212.720734 171.435562,210.845154 174.290817,213.408569 
	C174.560226,214.126175 174.570877,214.443192 174.330521,215.164429 
z"/>
<path fill="#1F1B2E" opacity="1.000000" stroke="none" 
	d="
M154.834320,216.593552 
	C158.222397,217.532318 161.574783,216.308624 164.664566,218.543213 
	C164.440857,218.823196 164.001770,218.825012 163.248550,218.725235 
	C158.362747,219.359421 153.757004,218.848465 148.777222,219.000458 
	C147.616821,219.003098 146.848495,219.003082 145.721954,219.175079 
	C145.122070,219.331207 144.883270,219.395248 144.317352,219.284546 
	C143.417435,218.902832 142.844666,218.695862 141.998566,218.354294 
	C141.079712,216.253052 142.618927,215.766327 144.250427,214.904739 
	C145.204071,214.611404 145.769638,214.549088 146.766235,214.566559 
	C149.610428,215.253555 152.244919,215.016693 154.834320,216.593552 
z"/>
<path fill="#382221" opacity="1.000000" stroke="none" 
	d="
M146.867889,218.596786 
	C152.034943,218.229492 157.105774,218.286316 162.555496,218.483383 
	C162.534866,218.908936 162.135330,219.194229 161.570541,219.664917 
	C157.086502,219.106812 152.731491,219.690521 147.963440,219.471832 
	C147.276657,219.305939 147.024155,219.163422 146.867889,218.596786 
z"/>
<path fill="#985F42" opacity="1.000000" stroke="none" 
	d="
M146.710464,218.747772 
	C151.562607,219.094894 156.117554,219.220154 161.038879,219.597870 
	C155.918625,219.896027 150.431976,219.941742 144.478516,219.978958 
	C144.011734,219.970474 143.998352,219.540222 143.994293,219.325012 
	C144.155472,219.058197 144.320724,219.006561 144.738495,218.894226 
	C145.436218,218.597458 145.911713,218.501511 146.710464,218.747772 
z"/>
<path fill="#AA5824" opacity="1.000000" stroke="none" 
	d="
M152.642609,221.966614 
	C152.540894,222.145172 152.087524,222.123306 151.293884,222.092117 
	C149.283264,222.871002 147.521591,222.379425 145.410278,222.253952 
	C144.267105,222.042068 143.513733,222.026672 142.383850,222.005524 
	C145.404907,220.588409 148.835312,220.622253 152.642609,221.966614 
z"/>
<path fill="#AA5824" opacity="1.000000" stroke="none" 
	d="
M134.422195,221.000061 
	C135.920547,219.854065 138.032974,220.004318 140.521667,220.014877 
	C139.010925,221.098053 136.911148,221.001984 134.422195,221.000061 
z"/>
<path fill="#DF7F47" opacity="1.000000" stroke="none" 
	d="
M174.174500,213.866974 
	C171.665176,214.263931 169.479965,214.713287 166.925385,215.113953 
	C162.837677,216.006409 159.046707,215.228989 154.906342,215.657593 
	C154.247162,215.821625 153.983398,215.868896 153.326035,215.904663 
	C150.753342,215.418274 148.664978,214.411774 146.010910,214.941650 
	C145.456223,215.235535 145.234528,215.356812 144.660278,215.625946 
	C143.298920,216.057632 142.229996,216.004562 140.820923,216.381470 
	C135.340118,215.448227 129.828003,215.776291 125.422226,211.421295 
	C120.850159,209.062271 116.544762,207.088455 112.492447,203.998871 
	C110.161575,201.340561 107.744614,199.270264 104.818672,197.240448 
	C103.385078,195.562866 102.182999,194.155991 100.841034,192.459473 
	C100.378593,190.899704 99.909050,189.689758 99.133957,188.254425 
	C98.722214,183.699829 102.638496,185.594711 104.655365,184.137665 
	C102.848358,181.979279 99.957092,183.792358 97.399689,182.272308 
	C97.115120,181.828949 97.117119,181.638336 97.124458,181.161819 
	C99.439690,180.111938 101.809731,180.636230 104.550797,180.739517 
	C110.000015,179.809952 115.227455,181.542725 120.671188,179.943237 
	C121.919228,179.979782 122.743980,180.036804 123.791153,179.497375 
	C125.482361,179.396500 126.904060,179.449127 128.654205,179.635315 
	C133.079971,181.794693 137.461716,180.727280 141.721405,180.895798 
	C145.476120,181.044357 149.370468,180.255737 152.154160,183.976868 
	C153.087753,185.224869 154.875427,184.913345 156.550156,184.753326 
	C156.689713,183.116730 154.066864,183.410507 154.531113,181.978897 
	C154.979950,180.594742 156.477844,180.985138 157.566605,180.842957 
	C163.805237,180.028290 170.048477,179.083694 176.685883,180.830322 
	C179.317337,182.821060 182.090424,182.138962 184.998657,182.613831 
	C187.839371,183.135910 190.311020,183.118225 193.155762,182.563187 
	C195.025375,182.582489 196.542587,182.430496 198.291641,183.139343 
	C197.601883,187.271576 195.744965,190.970566 196.261292,195.482193 
	C196.230087,196.513855 196.260574,197.203583 196.006897,198.202789 
	C195.670029,198.927307 195.474609,199.340149 195.202316,200.090363 
	C193.449646,201.863953 191.790283,203.307938 189.859848,204.881683 
	C189.151459,205.097946 188.765182,205.290176 188.210571,205.825317 
	C187.997879,206.076385 188.223541,206.025665 188.248947,206.138489 
	C187.245056,206.452698 186.278854,206.786774 185.487122,207.870468 
	C184.732117,208.954483 183.807755,209.126434 182.446594,209.106354 
	C181.781738,209.296982 181.507751,209.497009 181.149719,209.970184 
	C181.031570,210.197342 181.113647,210.111130 181.156708,210.152206 
	C180.018600,210.572174 178.526306,210.424301 177.980316,212.350006 
	C177.776138,212.848862 177.666443,213.036514 177.311890,213.440399 
	C176.244095,214.068817 175.370361,213.984375 174.174500,213.866974 
z"/>
<path fill="#DC814F" opacity="1.000000" stroke="none" 
	d="
M198.053986,185.368942 
	C196.582352,184.672073 195.155640,184.350372 193.030838,183.938477 
	C190.358856,183.272873 188.356567,183.495438 185.718063,183.833893 
	C182.338211,183.820236 179.450043,184.072937 177.241058,181.313232 
	C178.722977,181.009201 180.389053,180.996231 182.473053,180.977905 
	C184.332291,180.189697 185.999390,180.284714 187.899124,179.662567 
	C189.635437,179.482727 190.985657,179.472885 192.678513,179.767639 
	C193.021347,179.984619 192.999588,180.011749 192.995392,179.994904 
	C195.918533,180.958862 198.858215,180.347153 201.823761,180.191025 
	C204.347610,180.058167 207.151352,178.973328 209.211060,181.832794 
	C209.078308,182.678375 209.056229,183.065369 209.002060,183.741364 
	C207.112701,185.200562 205.599777,186.918076 203.040268,187.668076 
	C202.431686,187.818375 202.178635,187.837753 201.555603,187.770874 
	C200.941116,187.620041 200.696609,187.555420 200.087769,187.386230 
	C199.028885,186.930862 198.505920,186.398743 198.053986,185.368942 
z"/>
<path fill="#DF7F47" opacity="1.000000" stroke="none" 
	d="
M187.666733,179.792816 
	C186.562698,180.343063 185.111618,180.656143 183.275772,180.970871 
	C182.905243,180.787598 182.919495,180.602661 182.953308,180.138657 
	C183.407028,179.890991 183.841187,179.922409 184.600891,179.973480 
	C185.629898,179.331558 186.490982,179.532089 187.666733,179.792816 
z"/>
<path fill="#ED764B" opacity="1.000000" stroke="none" 
	d="
M97.316071,182.311218 
	C99.626976,182.260544 102.363426,181.328964 104.746948,183.709259 
	C102.446693,183.738174 99.690781,184.737030 97.316071,182.311218 
z"/>
<path fill="#CB703B" opacity="1.000000" stroke="none" 
	d="
M104.614136,180.781799 
	C102.629112,180.923950 100.307800,180.916962 97.558151,180.892944 
	C99.481125,179.873474 101.863655,179.787872 104.614136,180.781799 
z"/>
<path fill="#C77B54" opacity="1.000000" stroke="none" 
	d="
M98.714203,187.986145 
	C100.022285,188.934265 100.716705,190.062729 100.719131,191.840561 
	C100.323868,191.812256 99.946587,191.454697 99.339371,190.967300 
	C98.731979,190.119186 98.354523,189.400894 97.854652,188.404160 
	C97.950356,188.093994 98.168480,188.062302 98.714203,187.986145 
z"/>
<path fill="#BD724B" opacity="1.000000" stroke="none" 
	d="
M123.682938,179.247299 
	C123.392090,180.183502 122.552094,180.442459 121.312370,179.999710 
	C121.093010,179.908997 121.028374,179.545609 121.000595,179.363159 
	C121.750282,179.170715 122.527748,179.160721 123.682938,179.247299 
z"/>
<path fill="#A26039" opacity="1.000000" stroke="none" 
	d="
M64.019897,154.629410 
	C64.022110,155.165451 64.006180,155.347794 63.963837,155.804321 
	C60.616467,155.024231 61.313190,152.955276 62.592800,150.504669 
	C64.445709,151.364990 63.689102,153.033936 64.019897,154.629410 
z"/>
<path fill="#1F1B2E" opacity="1.000000" stroke="none" 
	d="
M119.157776,134.205063 
	C119.447510,134.267990 119.985588,134.481888 120.771820,134.845428 
	C120.482033,134.782074 119.944077,134.569046 119.157776,134.205063 
z"/>
<path fill="#3A292A" opacity="1.000000" stroke="none" 
	d="
M125.156555,211.524109 
	C129.936829,212.733521 134.680511,214.845596 140.299042,215.072968 
	C140.915573,215.184937 141.141708,215.297516 141.349838,215.788223 
	C141.157120,216.348022 140.982437,216.529694 140.445633,216.818542 
	C138.571320,217.061356 137.072647,217.034241 135.286957,216.744034 
	C132.713852,216.484222 130.465500,216.033997 127.837769,215.540436 
	C127.458397,215.497086 127.274597,215.539703 127.266815,215.633728 
	C126.557976,215.662674 126.017830,215.360168 125.869873,214.392365 
	C125.768822,213.330002 125.525009,212.564880 125.156555,211.524109 
z"/>
<path fill="#382221" opacity="1.000000" stroke="none" 
	d="
M139.369888,216.300568 
	C139.945984,216.099960 140.209137,216.059616 140.865845,215.951508 
	C142.291275,215.281677 143.402054,215.532318 144.756165,215.905594 
	C144.097565,216.767120 143.177261,217.307343 141.991089,218.033630 
	C139.982300,217.969925 138.239349,217.720154 136.154160,217.301514 
	C136.693893,215.944138 137.989960,216.755661 139.369888,216.300568 
z"/>
<path fill="#182036" opacity="1.000000" stroke="none" 
	d="
M139.340485,216.129593 
	C138.618423,216.436035 137.554047,216.731750 136.150787,217.080048 
	C135.811920,217.132645 135.376953,217.080307 135.169586,217.007370 
	C136.200943,216.135193 137.585663,216.058289 139.340485,216.129593 
z"/>
<path fill="#DE7F48" opacity="1.000000" stroke="none" 
	d="
M112.488998,116.988213 
	C115.596886,118.521881 118.767151,117.538712 121.867844,118.908211 
	C119.591660,119.178169 116.932594,119.286270 113.858826,119.386108 
	C110.912178,119.295174 108.380226,119.212509 105.380676,119.164276 
	C102.992050,118.847206 100.924774,119.531876 98.574844,118.170792 
	C103.228523,116.124352 107.718925,117.390778 112.488998,116.988213 
z"/>
<path fill="#AA5824" opacity="1.000000" stroke="none" 
	d="
M91.135498,108.310349 
	C90.961044,108.029915 91.014000,107.550789 91.037491,107.311707 
	C91.516624,107.016113 91.972275,106.959602 92.772270,106.882690 
	C93.776375,107.218033 93.955765,107.825752 93.983917,108.844864 
	C93.934258,109.395073 93.843430,109.595718 93.604797,109.897408 
	C92.767982,109.541328 92.038971,109.066063 91.135498,108.310349 
z"/>
<path fill="#A26039" opacity="1.000000" stroke="none" 
	d="
M94.215103,108.941635 
	C93.745697,108.605270 93.506310,108.034241 93.191772,107.162758 
	C93.665848,106.702698 94.215088,106.543106 95.060318,106.387756 
	C95.052582,107.163666 94.748848,107.935318 94.215103,108.941635 
z"/>
<path fill="#A46037" opacity="1.000000" stroke="none" 
	d="
M145.334137,222.202118 
	C146.717224,222.055450 148.413956,222.053436 150.532166,222.067108 
	C149.224426,222.963104 147.459824,223.131500 145.334137,222.202118 
z"/>
<path fill="#E67C3D" opacity="1.000000" stroke="none" 
	d="
M209.186829,181.978928 
	C204.242340,179.603546 198.710373,182.155807 193.367218,180.147186 
	C196.769958,179.683365 200.545380,179.241577 204.328918,179.155258 
	C206.256317,179.111313 208.917511,178.323471 209.186829,181.978928 
z"/>
<path fill="#DF7F47" opacity="1.000000" stroke="none" 
	d="
M201.323090,185.362976 
	C203.251663,183.780777 205.709915,184.018768 208.551208,184.020416 
	C208.979553,184.235901 208.989136,184.441437 209.019165,184.956055 
	C208.980392,185.555450 208.828003,185.783554 208.385925,186.026398 
	C205.929245,187.142838 203.687866,187.889252 201.323090,185.362976 
z"/>
<path fill="#E67C3D" opacity="1.000000" stroke="none" 
	d="
M188.430664,180.026184 
	C187.242798,180.020157 186.471832,180.010330 185.313644,179.996826 
	C187.342514,178.694016 189.825424,178.639755 192.691925,179.789276 
	C191.630081,179.997208 190.238815,180.009796 188.430664,180.026184 
z"/>
<path fill="#DA7E4D" opacity="1.000000" stroke="none" 
	d="
M201.008484,185.249268 
	C203.143311,185.330078 205.275940,185.617905 207.798981,186.004547 
	C207.768692,186.795410 207.347961,187.487442 206.863586,188.478455 
	C205.789337,189.841873 204.778748,190.906296 203.688873,192.281708 
	C201.071518,195.182129 198.775299,198.027588 195.408539,200.238403 
	C195.084854,199.887543 195.060684,199.355118 195.021576,198.423920 
	C195.006607,198.025131 195.018173,197.644669 194.803619,197.099121 
	C194.589050,196.553589 194.290878,196.247253 194.147232,196.088959 
	C193.911331,194.625092 194.059464,193.244888 193.681625,192.027969 
	C192.563980,188.428314 193.809158,186.248230 197.665207,185.094452 
	C198.515472,185.170151 199.021881,185.346542 199.771301,185.637268 
	C200.047440,186.197693 200.287476,186.411316 200.869812,186.131409 
	C201.005219,185.870346 201.006271,185.456284 201.008484,185.249268 
z"/>
<path fill="#DC814F" opacity="1.000000" stroke="none" 
	d="
M185.734634,208.109741 
	C184.820541,206.010269 186.436310,206.331192 187.960052,206.226562 
	C187.521790,206.847168 186.769226,207.443008 185.734634,208.109741 
z"/>
<path fill="#C77B54" opacity="1.000000" stroke="none" 
	d="
M177.307861,212.338654 
	C177.790131,210.815704 179.060486,210.364075 180.846924,210.203156 
	C180.580902,210.617477 179.962021,211.041672 179.157257,211.681122 
	C178.638168,212.345154 178.192108,212.565582 177.307861,212.338654 
z"/>
<path fill="#36272B" opacity="1.000000" stroke="none" 
	d="
M176.951508,212.289627 
	C177.422638,212.046768 177.862747,211.973907 178.637115,211.898712 
	C179.031128,212.130478 179.090881,212.364609 179.255295,212.946899 
	C179.359940,213.295074 179.304688,213.364716 179.265045,213.344635 
	C178.825500,213.343552 178.440186,213.428635 177.774506,213.624237 
	C177.306824,213.570374 177.134033,213.471924 176.893982,213.082886 
	C176.826706,212.792297 176.920502,212.459641 176.951508,212.289627 
z"/>
<path fill="#9E5F3A" opacity="1.000000" stroke="none" 
	d="
M185.915161,210.954575 
	C185.878372,211.116882 185.504532,211.361313 184.842545,211.774933 
	C184.895645,211.641678 185.236877,211.339188 185.915161,210.954575 
z"/>
<path fill="#DC814F" opacity="1.000000" stroke="none" 
	d="
M188.346588,206.050537 
	C188.348190,205.835129 188.698502,205.593872 189.318802,205.182037 
	C189.290955,205.349197 188.993118,205.686935 188.346588,206.050537 
z"/>
<path fill="#C77B54" opacity="1.000000" stroke="none" 
	d="
M181.290802,210.121475 
	C181.259674,209.953583 181.487778,209.709824 181.900436,209.301224 
	C181.906677,209.439453 181.728363,209.742523 181.290802,210.121475 
z"/>
<path fill="#36272B" opacity="1.000000" stroke="none" 
	d="
M173.906097,214.253296 
	C174.338470,212.834595 175.296799,212.925659 176.493439,212.796387 
	C176.826706,212.792297 176.932999,212.917816 176.986649,212.980148 
	C177.390701,213.376740 177.511276,213.785492 177.215607,214.520966 
	C176.265182,214.969177 175.533646,215.154663 174.440826,215.454391 
	C174.040283,215.276428 174.001038,214.984222 173.906097,214.253296 
z"/>
<path fill="#442A27" opacity="1.000000" stroke="none" 
	d="
M177.262817,214.710403 
	C177.010681,214.396790 177.024643,214.009872 177.039459,213.332733 
	C177.526047,213.094482 178.011780,213.146500 178.861481,213.261536 
	C178.659912,213.762085 178.094421,214.199600 177.262817,214.710403 
z"/>
<path fill="#9E5F3A" opacity="1.000000" stroke="none" 
	d="
M125.757889,214.101532 
	C126.365730,214.476379 126.718834,214.857635 127.165482,215.483307 
	C126.602791,215.367462 125.946548,215.007202 125.143341,214.404297 
	C125.165298,214.143753 125.334229,214.125870 125.757889,214.101532 
z"/>
<path fill="#C77B54" opacity="1.000000" stroke="none" 
	d="
M145.353027,216.189880 
	C144.016953,216.109283 143.016052,215.991699 141.637268,215.878922 
	C141.259415,215.883743 140.956863,215.491577 140.823151,215.281967 
	C141.835617,215.013107 142.981796,214.953857 144.556030,214.884216 
	C147.314651,213.494385 149.767197,213.910431 152.612076,214.641830 
	C157.183395,214.946854 161.366165,214.992142 166.052475,215.051331 
	C163.135468,216.907532 159.468658,216.008530 155.429962,216.069031 
	C152.649841,216.909668 150.254654,216.336761 147.463196,216.356857 
	C146.583527,216.212341 146.135849,216.182602 145.353027,216.189880 
z"/>
<path fill="#382221" opacity="1.000000" stroke="none" 
	d="
M147.400330,216.368225 
	C149.386078,216.165451 151.740967,216.088821 154.535889,216.063171 
	C154.975937,216.114151 155.064438,216.491608 155.109131,216.679749 
	C152.692368,216.743362 150.230911,216.618866 147.400330,216.368225 
z"/>
<path fill="#3A292A" opacity="1.000000" stroke="none" 
	d="
M146.996796,218.770386 
	C146.556198,218.974823 146.104721,218.980026 145.322128,218.909363 
	C145.478119,218.644241 145.965225,218.454971 146.708221,218.219177 
	C146.964127,218.172653 146.985931,218.571136 146.996796,218.770386 
z"/>
<path fill="#CB703B" opacity="1.000000" stroke="none" 
	d="
M114.532349,194.201599 
	C115.063141,195.203674 116.726425,196.616394 114.325394,196.457626 
	C113.078102,196.375153 111.920059,194.942795 110.626022,194.054565 
	C112.057800,192.590378 113.178726,193.546112 114.532349,194.201599 
z"/>
<path fill="#ED764B" opacity="1.000000" stroke="none" 
	d="
M147.908661,211.837250 
	C147.832016,210.083649 147.832016,210.083649 151.342941,210.726089 
	C150.638382,212.291351 149.296158,211.813095 147.908661,211.837250 
z"/>
<path fill="#AA5F31" opacity="1.000000" stroke="none" 
	d="
M120.645264,202.242462 
	C121.380180,198.962769 121.803650,198.935165 124.878006,201.823654 
	C123.724396,203.114700 122.359138,203.167450 120.645264,202.242462 
z"/>
<path fill="#CD8059" opacity="1.000000" stroke="none" 
	d="
M120.240273,202.105255 
	C121.648857,201.932083 122.915115,201.967026 124.565964,202.020172 
	C122.098465,204.734665 121.172859,204.787125 120.240273,202.105255 
z"/>
<path fill="#915737" opacity="1.000000" stroke="none" 
	d="
M141.017212,203.141235 
	C140.379547,205.318680 139.147934,204.322266 138.038010,203.785614 
	C137.868652,203.703705 137.728973,203.097733 137.843719,202.963669 
	C138.818665,201.824661 139.859863,202.274338 141.017212,203.141235 
z"/>
<path fill="#DC814F" opacity="1.000000" stroke="none" 
	d="
M163.450195,185.258926 
	C162.369751,183.926590 162.696854,183.021606 163.996201,183.150269 
	C165.111725,183.260712 167.145233,181.847397 167.109100,184.718262 
	C166.112137,186.009323 164.951553,185.607452 163.450195,185.258926 
z"/>
<path fill="#CB703B" opacity="1.000000" stroke="none" 
	d="
M145.425308,214.192078 
	C147.392654,212.861313 149.793060,212.858017 152.572754,213.730774 
	C150.642105,215.211288 148.175507,214.226135 145.425308,214.192078 
z"/>
<path fill="#CD8059" opacity="1.000000" stroke="none" 
	d="
M192.986053,184.011993 
	C190.617264,185.211380 188.201218,185.228134 185.411774,184.188660 
	C185.078918,184.032394 185.046158,184.008896 185.030731,184.018860 
	C187.302292,182.368515 189.773087,182.938126 192.615692,183.715500 
	C192.993622,183.997513 192.991745,184.005035 192.986053,184.011993 
z"/>
<path fill="#ED764B" opacity="1.000000" stroke="none" 
	d="
M145.027634,214.174316 
	C147.378326,213.925415 149.713654,213.909622 152.482880,213.876495 
	C152.932220,214.033035 152.947662,214.206924 152.981873,214.641174 
	C150.625015,214.919876 148.249374,214.938217 145.428909,214.915176 
	C144.984070,214.873810 145.012268,214.407425 145.027634,214.174316 
z"/>
<path fill="#E67C3D" opacity="1.000000" stroke="none" 
	d="
M194.099274,196.206497 
	C194.816650,195.666916 195.629730,195.403137 196.742523,195.023102 
	C197.220718,194.779022 197.399185,194.651215 197.813095,194.753616 
	C197.204910,195.879929 196.361298,196.776047 195.262146,197.848633 
	C194.736053,197.510864 194.465500,196.996582 194.099274,196.206497 
z"/>
<path fill="#B15E2A" opacity="1.000000" stroke="none" 
	d="
M166.816238,190.125946 
	C166.489395,190.139862 166.254578,190.047638 166.019760,189.955399 
	C166.178757,189.769379 166.337738,189.583359 166.496735,189.397339 
	C166.633911,189.604828 166.771088,189.812302 166.816238,190.125946 
z"/>
<path fill="#9F572C" opacity="1.000000" stroke="none" 
	d="
M163.268646,185.287872 
	C164.116760,185.007034 165.167389,184.949280 166.613068,184.894806 
	C166.283707,187.725647 164.819504,186.283997 163.268646,185.287872 
z"/>
<path fill="#E67C3D" opacity="1.000000" stroke="none" 
	d="
M192.780243,183.715698 
	C190.629425,184.009628 188.265228,184.021744 185.458176,184.031342 
	C187.330109,181.261627 189.882812,181.514145 192.780243,183.715698 
z"/>
<path fill="#CB703B" opacity="1.000000" stroke="none" 
	d="
M200.757324,185.842010 
	C200.722961,186.226242 200.440704,186.582138 200.158447,186.938034 
	C200.069672,186.659805 199.980881,186.381592 199.953201,185.927475 
	C200.014313,185.751587 200.509445,185.813675 200.757324,185.842010 
z"/>
<path fill="#DF7F47" opacity="1.000000" stroke="none" 
	d="
M198.215012,194.827179 
	C197.880432,194.972397 197.712357,194.960999 197.293274,194.928223 
	C197.519165,194.658798 197.996078,194.410782 198.749161,194.090973 
	C198.816116,194.241638 198.601501,194.458755 198.215012,194.827179 
z"/>
<path fill="#DF7F47" opacity="1.000000" stroke="none" 
	d="
M198.991058,193.985519 
	C198.980240,193.973694 199.061920,193.980957 199.043625,194.000061 
	C199.025330,194.019180 199.001892,193.997345 198.991058,193.985519 
z"/>
</svg>